<svg width="527" height="463" viewBox="0 0 527 463" fill="none" xmlns="http://www.w3.org/2000/svg">
<path d="M306.082 444.291C284.788 444.291 270.56 441.007 250.67 436.42C229.16 431.455 199.702 424.655 146.379 418.85C120.783 416.062 101.745 414.819 87.8465 413.914C58.6818 412.011 47.7686 411.298 34.4084 400.548C14.9107 384.865 2.83321 358.173 0.436881 325.391C-1.81849 294.661 4.73054 261.928 18.415 235.585C28.4937 216.189 39.4125 206.107 49.9704 196.358C62.2284 185.042 73.8069 174.368 83.474 150.123C92.9916 126.27 92.3996 109.823 91.878 95.3121C91.3621 81.0243 90.9167 68.6846 100.26 53.2804C106.685 42.6858 116.112 33.4078 128.277 25.7085C138.967 18.9424 151.803 13.3604 166.426 9.1203C200.096 -0.642633 231.982 -0.343798 244.13 0.239779C328.988 4.30508 414.734 62.1215 420.561 119.211C421.154 125.01 420.914 130.73 420.683 136.258C420.158 148.871 419.702 159.762 428.706 168.005C438.111 176.615 450.338 175.299 463.281 173.906C474.222 172.73 485.553 171.513 495.485 176.528C509.527 183.607 519.992 202.826 524.196 229.247C528.233 254.62 526.11 283.641 518.216 310.925C509.175 342.19 493.015 369.565 471.488 390.126C449.862 410.802 421.669 425.712 387.718 434.463C359.757 441.672 334.528 443.068 319.453 443.902C314.669 444.167 310.243 444.291 306.082 444.291ZM233.701 1.41821C192.242 1.41821 126.853 12.2835 101.551 53.9965C92.4221 69.0511 92.8591 81.2047 93.375 95.2754C93.9022 109.918 94.5027 126.515 84.8751 150.633C75.0924 175.161 63.3983 185.941 51.0192 197.37C40.5402 207.035 29.7144 217.029 19.7513 236.208C6.17962 262.333 -0.321488 294.805 1.9226 325.295C4.30484 357.693 16.185 384.039 35.3726 399.477C48.3635 409.925 58.3379 410.576 87.9537 412.51C101.869 413.418 120.938 414.661 146.554 417.452C199.967 423.268 229.478 430.079 251.028 435.052C274.659 440.505 290.272 444.108 319.369 442.498C349.605 440.823 420.415 436.905 470.442 389.15C517.032 344.677 530.277 276.909 522.733 229.478C518.602 203.497 508.419 184.653 494.794 177.785C485.254 172.976 474.172 174.168 463.453 175.321C450.738 176.689 437.592 178.104 427.683 169.034C418.199 160.354 418.69 148.629 419.208 136.216C419.437 130.735 419.673 125.063 419.09 119.36C416.355 92.5492 395.2 63.9765 361.051 40.9859C326.823 17.9247 284.182 3.59746 244.053 1.67476C240.823 1.50279 237.352 1.41821 233.701 1.41821Z" fill="black"/>
<path d="M473.205 196.288C511.32 216.981 516.959 340.744 450.747 408.777C404.086 456.724 337.623 460.682 309.953 462.342C257.862 465.443 252.768 449.422 149.294 437.294C76.5331 428.766 63.8297 434.906 45.643 419.155C7.25942 385.916 5.41001 307.982 30.9605 255.04C51.0023 213.502 74.5568 215.013 91.4242 169.505C109.019 122.044 89.6255 103.555 106.969 72.7639C132.1 28.1696 200.361 18.0429 239.988 20.0869C318.483 24.1353 397.864 81.7656 403.24 138.42C405.019 157.196 398.634 175.456 411.013 187.655C427.564 203.967 453.442 185.575 473.205 196.288Z" fill="#EBE9FF"/>
<path d="M66.8885 358.232L147.264 352.145L149.238 378.028C149.641 383.385 144.296 387.983 137.738 387.935L87.1587 387.554C77.252 388.304 68.7239 382.353 68.1121 374.262L66.8885 358.232Z" fill="white"/>
<path d="M137.828 388.741H137.721L87.1727 388.364C82.2109 388.733 77.4182 387.498 73.6771 384.887C69.8796 382.235 67.613 378.485 67.2972 374.327L66.0229 357.493L148.008 351.291L150.027 377.975C150.213 380.416 149.311 382.835 147.49 384.786C145.164 387.264 141.561 388.738 137.828 388.741ZM87.1191 386.748H87.1529L137.735 387.129C141.062 387.165 144.267 385.863 146.308 383.678C147.822 382.06 148.564 380.075 148.423 378.09L146.523 352.999L67.7511 358.962L68.9042 374.186C69.1861 377.851 71.2047 381.177 74.599 383.545C78.0441 385.95 82.4787 387.084 87.0853 386.734L87.1191 386.748Z" fill="black"/>
<path d="M70.3121 367.196L145.235 361.523C148.163 361.301 150.357 358.748 150.136 355.819L150.049 354.678C149.828 351.75 147.274 349.556 144.346 349.778L69.4228 355.451C66.4946 355.672 64.3007 358.226 64.5224 361.154L64.6088 362.295C64.8305 365.223 67.3839 367.417 70.3121 367.196Z" fill="white"/>
<path d="M69.9022 368.014C68.3599 368.012 66.8753 367.428 65.7445 366.379C64.6137 365.33 63.9199 363.894 63.8014 362.356L63.7168 361.229C63.5948 359.61 64.12 358.009 65.1771 356.778C66.2343 355.546 67.737 354.784 69.3552 354.66L144.281 348.988C145.9 348.865 147.501 349.39 148.732 350.447C149.963 351.504 150.724 353.008 150.847 354.626L150.935 355.771C151.056 357.389 150.531 358.989 149.473 360.22C148.416 361.451 146.914 362.212 145.296 362.336L70.3673 367.997C70.2132 368.009 70.0582 368.014 69.9022 368.014ZM69.4793 356.253C68.8886 356.297 68.3125 356.458 67.7838 356.725C67.2551 356.992 66.7843 357.361 66.3982 357.81C66.012 358.259 65.7181 358.78 65.5333 359.343C65.3485 359.906 65.2763 360.5 65.321 361.09L65.4084 362.235C65.4991 363.427 66.0597 364.535 66.9669 365.314C67.8741 366.094 69.0536 366.481 70.2461 366.391L145.172 360.718C145.763 360.674 146.34 360.514 146.869 360.247C147.398 359.98 147.869 359.611 148.255 359.162C148.642 358.712 148.936 358.191 149.121 357.628C149.306 357.065 149.378 356.471 149.333 355.88L149.246 354.736C149.155 353.543 148.595 352.436 147.688 351.657C146.78 350.877 145.601 350.49 144.408 350.58L69.4793 356.253Z" fill="black"/>
<path d="M77.6973 386.432L107.905 388.146C110.682 393.153 110.16 395.195 109.481 396.105C106.479 400.221 91.8215 394.132 89.9721 393.376C85.6151 391.566 81.4934 389.234 77.6973 386.432Z" fill="white"/>
<path d="M105.379 398.327C100.702 398.327 94.0572 395.942 89.6649 394.12C85.2466 392.282 81.0673 389.915 77.2181 387.072L75.0388 385.465L108.396 387.357L108.61 387.746C110.925 391.918 111.429 394.794 110.132 396.573C109.216 397.836 107.499 398.327 105.379 398.327ZM80.4771 387.396C83.568 389.455 86.8519 391.209 90.2823 392.632C99.9522 396.643 107.234 397.822 108.83 395.631C109.642 394.518 109.14 392.144 107.42 388.925L80.4771 387.396Z" fill="black"/>
<path d="M99.0613 388.127C98.9431 388.128 98.8284 388.086 98.7392 388.008C98.65 387.931 98.5925 387.823 98.5775 387.706C98.5625 387.588 98.5912 387.47 98.6581 387.372C98.7249 387.275 98.8253 387.205 98.9401 387.177C102.866 386.162 106.475 384.179 109.436 381.409C111.641 379.333 113.429 376.856 114.705 374.11C114.765 374.002 114.863 373.922 114.979 373.884C115.096 373.846 115.223 373.854 115.334 373.906C115.445 373.957 115.533 374.049 115.579 374.163C115.625 374.277 115.626 374.404 115.582 374.518C114.252 377.375 112.391 379.952 110.099 382.113C107.019 384.995 103.266 387.058 99.1825 388.113C99.1427 388.121 99.1021 388.126 99.0613 388.127Z" fill="black"/>
<path d="M88.5711 387.732C88.4528 387.733 88.3382 387.691 88.249 387.614C88.1598 387.536 88.1022 387.428 88.0873 387.311C88.0723 387.194 88.101 387.075 88.1678 386.977C88.2347 386.88 88.3351 386.81 88.4499 386.782C92.3768 385.768 95.9866 383.784 98.9486 381.014C101.156 378.939 102.947 376.461 104.226 373.715C104.286 373.608 104.384 373.527 104.5 373.489C104.617 373.451 104.744 373.459 104.855 373.511C104.966 373.563 105.054 373.655 105.1 373.768C105.146 373.882 105.147 374.009 105.103 374.124C103.774 376.98 101.914 379.558 99.6224 381.719C96.5387 384.601 92.7803 386.662 88.6923 387.712C88.653 387.724 88.6122 387.731 88.5711 387.732Z" fill="black"/>
<path d="M67.802 363.997C67.679 363.994 67.5619 363.944 67.4745 363.857C67.3871 363.77 67.3358 363.654 67.3312 363.531C67.3265 363.408 67.3688 363.288 67.4494 363.195C67.53 363.102 67.643 363.043 67.7653 363.03L145.858 357.11C145.985 357.1 146.112 357.142 146.209 357.225C146.306 357.309 146.367 357.427 146.376 357.555C146.386 357.683 146.344 357.81 146.261 357.907C146.177 358.004 146.059 358.064 145.931 358.074L67.8386 363.994L67.802 363.997Z" fill="black"/>
<path d="M67.4946 359.951C67.3716 359.948 67.2545 359.898 67.1671 359.811C67.0797 359.725 67.0284 359.608 67.0238 359.485C67.0191 359.362 67.0614 359.242 67.142 359.149C67.2226 359.056 67.3356 358.997 67.458 358.984L145.55 353.064C145.613 353.059 145.677 353.067 145.737 353.087C145.798 353.107 145.854 353.138 145.902 353.179C145.95 353.221 145.989 353.271 146.018 353.328C146.047 353.385 146.064 353.446 146.069 353.51C146.074 353.573 146.066 353.637 146.046 353.697C146.026 353.757 145.995 353.813 145.954 353.861C145.912 353.909 145.862 353.949 145.805 353.978C145.748 354.006 145.687 354.024 145.623 354.028L67.5313 359.949L67.4946 359.951Z" fill="black"/>
<path d="M162.584 145.649C168.313 144.378 176.232 143.676 183.026 147.685C190.92 152.348 190.018 159.599 197.472 164.797C206.583 171.157 222.464 170.692 227.888 163.427C233.924 155.344 226.228 139.887 220.758 128.906C214.088 115.515 208.461 113.118 207.491 103.011C207.274 100.756 207.091 95.9887 203.674 92.5211C201.06 89.8682 197.596 89.0111 195.092 88.7067C184.255 107.689 173.419 126.67 162.584 145.649Z" fill="black"/>
<path d="M206.028 118.968C205.27 125.526 204.198 134.801 197.446 138.212C194.579 139.653 191.605 139.579 189.552 139.281C189.314 140.482 189.343 141.722 189.637 142.912C189.757 143.385 189.92 143.847 190.125 144.29C189.947 149.235 186.403 152.869 182.699 152.996C180.274 153.078 177.748 151.654 176.37 149.413C175.353 147.706 175.02 145.677 175.44 143.735C175.606 142.804 175.691 141.861 175.696 140.916C175.704 139.014 175.393 137.124 174.774 135.325C172.819 134.314 171.074 132.94 169.632 131.277C164.743 125.596 165.319 118.289 165.474 114.393C165.595 111.407 165.942 102.735 172.851 95.6053C172.939 95.5151 173.057 95.3911 173.207 95.2417C177.492 90.948 185.696 85.7663 192.907 87.8159C197.844 89.2255 200.483 93.4937 202.411 96.6118C207.635 105.064 206.609 113.939 206.028 118.968Z" fill="white"/>
<path d="M182.485 153.63C179.877 153.63 177.278 152.119 175.812 149.737C174.703 147.889 174.343 145.688 174.802 143.583C174.958 142.697 175.038 141.8 175.042 140.901C175.052 139.156 174.779 137.42 174.233 135.762C172.302 134.73 170.577 133.352 169.144 131.697C164.321 126.095 164.633 119.117 164.805 114.948L164.828 114.367C164.946 111.424 165.307 102.464 172.386 95.157L172.75 94.7848C176.612 90.9169 185.239 84.9655 193.085 87.1955C198.261 88.6671 200.979 93.0651 202.952 96.2734C208.292 104.914 207.232 114.105 206.659 119.041L206.019 118.968L206.659 119.041C205.873 125.869 204.793 135.221 197.725 138.776C195.504 139.903 192.933 140.301 190.074 139.988C189.903 141.36 190.118 142.752 190.694 144.008L190.759 144.146V144.301C190.579 149.3 186.967 153.481 182.71 153.625L182.485 153.63ZM189.476 87.9962C183.161 87.9962 176.79 92.5689 173.663 95.6982L173.314 96.0535C166.576 103.008 166.232 111.596 166.119 114.418L166.094 115.004C165.922 118.982 165.631 125.638 170.122 130.857C171.508 132.453 173.186 133.772 175.065 134.742L175.29 134.86L175.375 135.102C176.347 137.909 176.585 140.917 176.068 143.842C175.674 145.628 175.976 147.498 176.914 149.069C178.166 151.101 180.477 152.418 182.674 152.345C185.775 152.24 189.231 149.182 189.471 144.409C189.279 143.974 189.125 143.524 189.008 143.064C188.688 141.783 188.656 140.448 188.915 139.154L189.034 138.55L189.643 138.638C192.484 139.049 195.016 138.711 197.162 137.631C203.603 134.389 204.638 125.438 205.394 118.903C205.983 113.786 206.972 105.222 201.87 96.9612C199.995 93.9306 197.432 89.7807 192.738 88.4444C191.677 88.1441 190.579 87.9933 189.476 87.9962Z" fill="black"/>
<path d="M204.328 97.3335C202.831 93.2541 200.917 88.047 197.359 85.0418C191.532 80.1138 180.917 80.7904 171.095 86.2399C170.813 85.6366 168.716 81.5403 164.019 80.4408C163.427 80.3027 157.659 79.0312 154.434 83.2234C152.237 86.0623 152.139 90.2037 154.242 93.4938C153.325 94.3436 152.741 95.493 152.596 96.735C152.45 97.977 152.753 99.23 153.45 100.268C154.146 101.307 155.191 102.063 156.395 102.4C157.599 102.737 158.884 102.633 160.018 102.106C157.555 107.256 154.693 112.206 151.459 116.91C136.94 138.023 123.58 141.437 123.433 152.432C123.312 161.533 132.359 168.865 138.31 171.916C148.804 177.281 162.02 175.64 171.887 167.583C172.389 165.045 175.358 149.996 175.719 142.449C175.803 140.718 175.769 139.185 175.769 139.185C175.631 135.948 175.008 132.376 174.408 129.103C173.167 122.365 172.84 121.39 171.817 120.364C170.72 119.267 170.018 119.275 169.116 118.672C168.784 118.439 168.475 118.175 168.194 117.883C167.196 116.868 165.231 113.09 167.134 110.009C167.828 108.881 169.519 107.082 171.244 107.392C174.193 107.925 174.729 114.159 176.285 114.051C176.643 114.026 176.81 113.64 178.493 109.873C179.31 108.038 179.725 107.116 179.919 106.843C181.461 104.695 184.23 104.472 186.09 104.043C188.628 103.454 192.062 101.881 195.783 97.5168C197.115 98.4049 198.397 99.3658 199.623 100.395C203.716 103.829 205.14 106.316 205.862 105.96C206.769 105.535 205.695 101.046 204.328 97.3335Z" fill="black"/>
<path d="M188.274 116.86C188.406 115.479 187.948 114.305 187.251 114.238C186.554 114.171 185.881 115.236 185.748 116.617C185.615 117.998 186.073 119.172 186.77 119.239C187.468 119.306 188.141 118.24 188.274 116.86Z" fill="black"/>
<path d="M201.168 117.474C201.3 116.093 200.843 114.919 200.145 114.852C199.448 114.785 198.775 115.85 198.642 117.231C198.509 118.612 198.967 119.786 199.665 119.853C200.362 119.92 201.035 118.855 201.168 117.474Z" fill="black"/>
<path d="M183.091 112.645L182.882 112.363C183.522 111.909 185.239 110.883 187.393 111.196C188.158 111.309 188.893 111.573 189.555 111.974L189.366 112.275C188.745 111.9 188.055 111.652 187.337 111.545C185.318 111.246 183.697 112.213 183.091 112.645Z" fill="#210142"/>
<path d="M204.356 112.802C203.824 112.544 203.252 112.378 202.665 112.312C201.458 112.185 200.243 112.457 199.205 113.087L199.062 112.859C200.151 112.197 201.428 111.91 202.696 112.041C203.313 112.113 203.913 112.288 204.472 112.56L204.356 112.802Z" fill="#210142"/>
<path d="M189.084 138.517C184.323 137.746 179.757 136.057 175.64 133.543C176.367 135.207 178.459 139.359 183.161 142.06C185.111 143.176 187.255 143.909 189.479 144.22C189.349 142.32 189.218 140.419 189.084 138.517Z" fill="black"/>
<path d="M171.157 111.993C171.135 112.839 170.311 113.036 170.103 113.84C169.674 115.5 172.519 117.406 172.454 117.48C172.389 117.553 168.659 115.63 168.665 112.839C168.665 111.745 169.229 110.398 169.905 110.353C170.478 110.302 171.18 111.187 171.157 111.993Z" fill="black"/>
<path d="M196.474 123.603C197.068 124.731 197.976 126.053 197.48 126.741C196.719 127.798 193.201 126.597 193.251 126.284C193.279 126.039 195.453 126.597 196.164 125.59C196.829 124.646 195.659 123.084 194.963 121.294C193.068 116.428 195.219 111.291 195.47 111.311C195.721 111.331 193.485 117.888 196.474 123.603Z" fill="black"/>
<path d="M197.159 130.166C197.562 130.831 196.113 133.126 194.058 133.493C192.101 133.839 190.567 132.286 190.209 131.92C189.364 131.074 188.498 129.605 188.893 129.145C189.341 128.621 190.866 130.048 193.725 130.228C195.851 130.36 196.871 129.695 197.159 130.166Z" fill="black"/>
<path d="M175.149 148.389C171.519 151.259 168.076 154.357 164.839 157.664C126.729 196.592 127.33 254.586 129.712 282.333H243.143C242.802 267.616 241.067 252.965 237.958 238.576C233.628 218.616 227.028 189.722 204.559 163.717C200.471 158.984 196.042 154.556 191.309 150.467C190.799 150.862 186.53 154.067 181.23 152.627C178.788 151.931 176.648 150.439 175.149 148.389Z" fill="white"/>
<path d="M243.865 283.043H129.055L128.999 282.401C127.208 261.538 128.012 241.922 131.386 224.066C136.554 196.719 147.636 174.225 164.323 157.177C167.584 153.848 171.052 150.728 174.706 147.837L175.27 147.386L175.702 147.972C177.105 149.9 179.116 151.301 181.411 151.95C186.234 153.264 190.136 150.487 190.869 149.915L191.326 149.562L191.763 149.94C196.52 154.049 200.971 158.499 205.081 163.255C228.122 189.928 234.702 220.288 238.629 238.427C241.741 252.862 243.482 267.559 243.828 282.322L243.865 283.043ZM130.349 281.634H242.418C242.037 267.202 240.313 252.838 237.27 238.725C233.369 220.716 226.839 190.576 204.026 164.177C200.083 159.614 195.823 155.336 191.278 151.372C189.809 152.379 185.842 154.614 181.055 153.312C178.692 152.651 176.589 151.28 175.031 149.385C171.625 152.114 168.387 155.046 165.333 158.164C130.893 193.342 127.259 244.592 130.349 281.634Z" fill="black"/>
<path d="M204.72 236.859C206.767 236.859 208.427 235.199 208.427 233.152C208.427 231.104 206.767 229.445 204.72 229.445C202.672 229.445 201.012 231.104 201.012 233.152C201.012 235.199 202.672 236.859 204.72 236.859Z" fill="#7B6FF7"/>
<path d="M204.723 237.567C203.926 237.567 203.144 237.352 202.459 236.943C201.775 236.535 201.214 235.949 200.836 235.247C200.458 234.546 200.278 233.755 200.313 232.959C200.348 232.163 200.599 231.391 201.037 230.726C201.476 230.061 202.086 229.527 202.804 229.181C203.522 228.834 204.32 228.689 205.114 228.76C205.907 228.831 206.667 229.116 207.312 229.584C207.957 230.052 208.463 230.685 208.777 231.418C209.062 232.089 209.178 232.82 209.112 233.547C209.046 234.273 208.802 234.972 208.4 235.581C207.999 236.19 207.453 236.69 206.811 237.036C206.169 237.383 205.452 237.565 204.723 237.567ZM204.723 230.152C204.078 230.154 203.451 230.363 202.934 230.749C202.418 231.134 202.04 231.676 201.855 232.294C201.671 232.912 201.691 233.573 201.911 234.178C202.132 234.784 202.542 235.303 203.08 235.657C203.618 236.012 204.257 236.183 204.9 236.147C205.544 236.11 206.159 235.867 206.653 235.454C207.148 235.04 207.496 234.478 207.647 233.852C207.797 233.225 207.741 232.566 207.488 231.973C207.258 231.43 206.872 230.966 206.379 230.642C205.886 230.318 205.307 230.147 204.717 230.152H204.723Z" fill="black"/>
<path d="M129.438 279.384C145.66 276.001 159.767 273.134 171.163 270.822C233.304 258.22 245.24 256.475 256.963 263.912C269.742 272.023 280.362 289.849 276.539 306.525C273.948 317.889 265.544 324.931 261.569 327.829C262.762 328.359 285.563 338.881 287.342 360.155C287.523 362.289 288.47 373.546 281.14 381.958C273.221 391.07 260.207 391.569 252.925 391.749C206.476 392.877 152.488 391.749 144.668 391.566L146.396 346.786C142.06 343.176 138.298 338.929 135.237 334.19C120.831 311.768 127.575 285.809 129.438 279.384Z" fill="#7B6FF7"/>
<path d="M163.734 344.99L143.718 357.755C143.778 368.126 143.836 378.497 143.892 388.868L173.897 376.999C170.509 366.328 167.121 355.658 163.734 344.99Z" fill="white"/>
<path d="M143.182 389.903L142.999 357.369L164.143 343.905L174.783 377.405L143.182 389.903ZM144.414 358.139L144.58 387.834L173.015 376.579L163.331 346.078L144.414 358.139Z" fill="black"/>
<path d="M175.885 385.457L161.755 341.111L223.575 295.034C223.649 294.978 223.733 294.938 223.823 294.915C223.912 294.892 224.006 294.887 224.097 294.9C224.189 294.913 224.277 294.944 224.357 294.991C224.436 295.038 224.506 295.1 224.561 295.174C224.617 295.249 224.657 295.333 224.68 295.422C224.703 295.512 224.708 295.605 224.695 295.697C224.682 295.789 224.651 295.877 224.604 295.956C224.557 296.036 224.495 296.106 224.42 296.161L163.404 341.627L176.655 383.224L259.012 327.821C259.167 327.717 259.358 327.678 259.541 327.714C259.724 327.75 259.886 327.858 259.99 328.013C260.095 328.168 260.133 328.358 260.097 328.542C260.061 328.725 259.954 328.887 259.799 328.991L175.885 385.457Z" fill="#9D9BEA"/>
<path d="M107.141 408.448L127.769 330.522L152.86 337.167C158.048 338.54 160.644 345.1 158.445 351.263L141.488 398.907C138.95 408.51 130.524 414.61 122.681 412.535L107.141 408.448Z" fill="white"/>
<path d="M125.782 413.77C124.665 413.77 123.554 413.625 122.475 413.339L106.154 409.02L127.197 329.538L153.069 336.386C155.431 337.012 157.422 338.658 158.668 341.023C160.266 344.06 160.469 347.995 159.204 351.547L142.257 399.17C139.948 407.839 132.982 413.77 125.782 413.77ZM108.125 407.872L122.886 411.783C130.29 413.742 138.282 407.884 140.709 398.727L140.729 398.662L157.687 351.017C158.814 347.882 158.637 344.432 157.241 341.784C156.21 339.811 154.58 338.463 152.655 337.956L128.342 331.52L108.125 407.872Z" fill="black"/>
<path d="M116.727 408.144L135.958 335.509C136.71 332.67 135.018 329.76 132.179 329.008L131.073 328.715C128.234 327.963 125.324 329.655 124.572 332.494L105.34 405.129C104.589 407.968 106.281 410.878 109.119 411.63L110.226 411.923C113.065 412.674 115.975 410.982 116.727 408.144Z" fill="white"/>
<path d="M111.598 412.922C111.066 412.921 110.537 412.85 110.022 412.713L108.915 412.431C107.346 412.016 106.006 410.994 105.19 409.591C104.374 408.188 104.149 406.518 104.564 404.949L105.343 405.155L104.564 404.949L123.794 332.309C123.999 331.53 124.356 330.799 124.844 330.158C125.332 329.517 125.941 328.978 126.638 328.573C127.334 328.168 128.103 327.904 128.902 327.796C129.7 327.688 130.512 327.739 131.291 327.945L132.399 328.227C133.968 328.643 135.307 329.665 136.123 331.069C136.939 332.472 137.164 334.143 136.749 335.712L117.519 408.349C117.171 409.654 116.402 410.808 115.332 411.632C114.261 412.457 112.949 412.905 111.598 412.908V412.922ZM129.715 329.355C128.719 329.354 127.751 329.682 126.962 330.289C126.172 330.896 125.606 331.747 125.351 332.71L106.121 405.349C105.969 405.922 105.932 406.519 106.011 407.106C106.091 407.693 106.285 408.259 106.583 408.771C106.881 409.283 107.276 409.731 107.748 410.091C108.219 410.45 108.756 410.712 109.329 410.864L110.434 411.146C111.007 411.298 111.604 411.335 112.191 411.256C112.778 411.177 113.344 410.984 113.857 410.686C114.369 410.388 114.818 409.993 115.177 409.521C115.537 409.05 115.8 408.513 115.951 407.94L135.181 335.3C135.487 334.144 135.321 332.914 134.72 331.879C134.119 330.845 133.132 330.092 131.976 329.786L130.868 329.504C130.491 329.405 130.104 329.355 129.715 329.355Z" fill="black"/>
<path d="M137.324 407.492C141.169 398.166 145.014 388.841 148.857 379.517C154.496 378.539 156.246 379.706 156.895 380.644C159.798 384.831 149.246 396.68 147.913 398.177C144.772 401.698 141.217 404.826 137.324 407.492Z" fill="white"/>
<path d="M135.55 409.685L148.282 378.798L148.719 378.722C153.421 377.907 156.311 378.383 157.557 380.182C160.396 384.278 153.111 393.548 148.516 398.707C145.331 402.279 141.724 405.451 137.775 408.154L135.55 409.685ZM149.432 380.239L139.148 405.191C142.111 402.948 144.849 400.422 147.323 397.65C154.287 389.829 157.788 383.337 156.243 381.11C155.448 379.968 153.041 379.663 149.432 380.239Z" fill="black"/>
<path d="M145.483 388.189H145.443C145.315 388.178 145.197 388.117 145.114 388.019C145.031 387.921 144.99 387.795 145 387.667C145.331 383.626 144.643 379.567 142.999 375.86C141.76 373.097 140.006 370.595 137.831 368.488C137.739 368.399 137.686 368.276 137.685 368.148C137.683 368.02 137.732 367.896 137.821 367.804C137.911 367.712 138.033 367.66 138.161 367.658C138.289 367.656 138.413 367.705 138.505 367.794C140.768 369.986 142.592 372.59 143.878 375.466C145.591 379.32 146.308 383.542 145.965 387.746C145.953 387.866 145.898 387.978 145.809 388.06C145.72 388.142 145.603 388.188 145.483 388.189Z" fill="black"/>
<path d="M141.668 397.969H141.626C141.563 397.964 141.501 397.946 141.445 397.918C141.388 397.889 141.338 397.849 141.297 397.801C141.256 397.753 141.225 397.697 141.205 397.637C141.186 397.577 141.178 397.513 141.183 397.45C141.516 393.408 140.828 389.347 139.182 385.64C137.943 382.877 136.19 380.376 134.017 378.268C133.971 378.224 133.935 378.171 133.91 378.113C133.885 378.055 133.872 377.992 133.871 377.929C133.87 377.865 133.882 377.802 133.906 377.744C133.929 377.685 133.964 377.631 134.008 377.586C134.053 377.54 134.105 377.504 134.164 377.479C134.222 377.454 134.284 377.441 134.348 377.44C134.411 377.439 134.474 377.451 134.533 377.475C134.592 377.498 134.645 377.533 134.691 377.577C136.952 379.769 138.776 382.372 140.064 385.246C141.775 389.1 142.492 393.323 142.147 397.526C142.137 397.646 142.083 397.759 141.994 397.841C141.905 397.923 141.789 397.968 141.668 397.969Z" fill="black"/>
<path d="M112.43 409.798C112.389 409.802 112.347 409.802 112.306 409.798C112.182 409.765 112.076 409.684 112.012 409.573C111.947 409.462 111.929 409.33 111.962 409.206L132.001 333.507C132.04 333.389 132.122 333.291 132.23 333.232C132.339 333.172 132.467 333.157 132.586 333.189C132.706 333.221 132.809 333.297 132.875 333.402C132.94 333.508 132.962 333.634 132.937 333.755L112.895 409.454C112.866 409.554 112.804 409.642 112.72 409.704C112.637 409.766 112.535 409.799 112.43 409.798Z" fill="black"/>
<path d="M108.506 408.76C108.432 408.76 108.359 408.743 108.293 408.71C108.226 408.678 108.169 408.63 108.123 408.572C108.078 408.513 108.047 408.445 108.032 408.373C108.017 408.301 108.019 408.226 108.038 408.154L128.08 332.456C128.112 332.332 128.193 332.226 128.304 332.162C128.415 332.098 128.546 332.08 128.67 332.113C128.794 332.146 128.899 332.227 128.964 332.337C129.028 332.448 129.046 332.58 129.013 332.704L108.974 408.4C108.946 408.503 108.886 408.594 108.801 408.66C108.716 408.725 108.613 408.76 108.506 408.76Z" fill="black"/>
<path d="M131.812 222.856C130.651 230.84 131.68 236.975 132.658 240.736C133.368 243.481 133.944 245.621 135.477 247.86C139.469 253.729 146.655 255.401 151.025 256.283C171.118 260.343 205.095 262.613 207.384 262.768L215.216 245.159L217.246 240.597L171.521 224.539" fill="white"/>
<path d="M207.812 263.495L207.322 263.464C205.856 263.368 171.174 261.076 150.867 256.98C147.081 256.213 139.201 254.623 134.877 248.263C133.253 245.875 132.658 243.577 131.97 240.916C130.484 235.176 130.197 229.075 131.124 222.76C131.151 222.573 131.251 222.405 131.402 222.292C131.554 222.178 131.744 222.13 131.931 222.157C132.117 222.184 132.286 222.284 132.399 222.435C132.512 222.586 132.561 222.776 132.534 222.963C131.625 228.82 131.897 234.8 133.335 240.549C134.017 243.188 134.558 245.272 136.044 247.457C140.044 253.34 147.543 254.854 151.146 255.584C170.317 259.455 202.394 261.71 206.924 262.015L216.276 240.995L171.29 225.207C171.202 225.177 171.122 225.129 171.053 225.068C170.984 225.006 170.927 224.931 170.887 224.848C170.847 224.765 170.824 224.674 170.818 224.582C170.813 224.489 170.826 224.397 170.857 224.309C170.887 224.222 170.935 224.142 170.996 224.072C171.058 224.003 171.133 223.947 171.216 223.907C171.3 223.867 171.39 223.844 171.482 223.838C171.575 223.833 171.667 223.846 171.755 223.877L218.184 240.183L207.812 263.495Z" fill="black"/>
<path d="M246.878 214.39L299.944 239.986C297.995 249.308 296.048 258.63 294.103 267.952C286.67 265.263 279.088 262.383 271.357 259.314C260.222 254.879 249.566 250.353 239.39 245.737C237.902 231.683 234.034 212.166 223.062 191.91C209.273 166.438 190.409 149.768 191.317 150.467C213.709 168.074 232.561 189.764 246.878 214.39Z" fill="white"/>
<path d="M294.627 268.883L293.863 268.601C286.251 265.852 278.606 262.945 271.098 259.954C260.385 255.689 249.616 251.116 239.1 246.365L238.731 246.199L238.689 245.799C236.633 226.372 231.167 208.348 222.441 192.234C211.3 171.654 196.835 156.74 191.131 151.285C190.748 150.915 190.308 150.495 190.753 149.985C190.876 149.843 191.051 149.756 191.238 149.743C191.425 149.73 191.61 149.792 191.751 149.915C214.159 167.53 233.035 189.222 247.386 213.849L300.745 239.582L294.627 268.883ZM240.047 245.255C250.428 249.935 261.045 254.443 271.623 258.652C278.865 261.536 286.249 264.344 293.581 267.005L299.144 240.375L246.385 214.931L246.275 214.745C234.174 193.934 218.808 175.202 200.764 159.266C207.567 166.878 216.341 178.002 223.682 191.566C232.433 207.734 237.939 225.797 240.047 245.255Z" fill="black"/>
<path d="M174.706 148.739C172.967 150.177 184.638 166.644 189.648 174.442C210.096 206.206 209.69 233.234 212.766 232.746C216.09 232.216 218.534 200.125 203.913 169.691C200.355 162.296 195.968 155.329 190.835 148.925C189.413 150.372 187.62 151.401 185.653 151.899C180.181 153.247 175.716 147.91 174.706 148.739Z" fill="#7B6FF7"/>
<path d="M212.645 233.459C211.162 233.459 210.598 230.956 209.321 225.283C207.02 215.066 202.732 196.048 189.068 174.819C188.044 173.227 186.722 171.247 185.326 169.15C182.561 165.003 179.426 160.3 177.128 156.464C173.579 150.501 173.387 148.925 174.261 148.198C175.008 147.58 175.953 148.155 177.362 149.024C179.307 150.216 182.251 152.018 185.484 151.228C187.326 150.757 189.003 149.792 190.336 148.437L190.9 147.873L191.393 148.488C196.554 154.931 200.969 161.939 204.553 169.376C211.914 184.698 214.576 199.457 215.512 209.126C216.62 220.57 215.709 229.397 214.24 232.205C213.857 232.938 213.411 233.332 212.881 233.42C212.804 233.439 212.724 233.452 212.645 233.459ZM175.248 149.447C175.335 150.05 175.916 151.736 178.698 156.334C180.954 160.038 183.894 164.47 186.499 168.378C187.909 170.478 189.223 172.463 190.254 174.067C204.069 195.507 208.373 214.683 210.697 224.984C211.444 228.3 212.151 231.44 212.701 232.013C213.595 231.269 215.255 224.652 214.322 211.881C213.716 203.561 211.472 187.072 203.276 170.001C199.85 162.891 195.654 156.179 190.762 149.985C189.352 151.247 187.656 152.147 185.82 152.607C182.017 153.537 178.772 151.552 176.629 150.239C176.184 149.948 175.722 149.681 175.248 149.441V149.447Z" fill="black"/>
<path d="M189.73 193.305C191.778 193.305 193.437 191.645 193.437 189.598C193.437 187.55 191.778 185.891 189.73 185.891C187.683 185.891 186.023 187.55 186.023 189.598C186.023 191.645 187.683 193.305 189.73 193.305Z" fill="#7B6FF7"/>
<path d="M189.736 194.01C188.939 194.011 188.156 193.796 187.471 193.388C186.787 192.98 186.225 192.394 185.847 191.692C185.468 190.991 185.287 190.2 185.322 189.404C185.357 188.607 185.607 187.835 186.046 187.17C186.485 186.504 187.096 185.97 187.814 185.624C188.532 185.277 189.33 185.132 190.124 185.203C190.918 185.275 191.678 185.56 192.323 186.028C192.968 186.497 193.474 187.131 193.787 187.864C194.246 188.94 194.259 190.154 193.824 191.24C193.388 192.326 192.539 193.194 191.464 193.655C190.918 193.89 190.33 194.01 189.736 194.01ZM189.736 186.595C189.239 186.596 188.751 186.72 188.314 186.956C187.877 187.191 187.505 187.531 187.232 187.946C186.958 188.36 186.792 188.836 186.747 189.33C186.703 189.825 186.781 190.322 186.976 190.779C187.124 191.151 187.346 191.489 187.627 191.774C187.908 192.059 188.243 192.285 188.613 192.438C188.983 192.592 189.379 192.669 189.78 192.667C190.18 192.665 190.576 192.583 190.944 192.426C191.312 192.268 191.645 192.039 191.923 191.751C192.201 191.463 192.419 191.123 192.564 190.749C192.708 190.376 192.777 189.978 192.765 189.578C192.753 189.177 192.662 188.784 192.496 188.419C192.265 187.878 191.88 187.417 191.39 187.093C190.899 186.769 190.324 186.596 189.736 186.595Z" fill="black"/>
<path d="M198.563 214.692C200.61 214.692 202.27 213.032 202.27 210.984C202.27 208.937 200.61 207.277 198.563 207.277C196.515 207.277 194.855 208.937 194.855 210.984C194.855 213.032 196.515 214.692 198.563 214.692Z" fill="#7B6FF7"/>
<path d="M198.568 215.396C197.846 215.397 197.135 215.221 196.498 214.883C195.86 214.545 195.315 214.055 194.91 213.458C194.505 212.86 194.254 212.172 194.177 211.454C194.1 210.736 194.2 210.011 194.469 209.341C194.795 208.532 195.354 207.839 196.074 207.348C196.794 206.856 197.643 206.589 198.515 206.58C199.386 206.571 200.241 206.821 200.971 207.297C201.701 207.773 202.274 208.455 202.617 209.256C202.903 209.927 203.019 210.658 202.954 211.384C202.889 212.11 202.645 212.809 202.243 213.418C201.842 214.027 201.296 214.527 200.654 214.873C200.012 215.219 199.295 215.401 198.565 215.402L198.568 215.396ZM198.568 207.979C198.072 207.98 197.583 208.104 197.146 208.339C196.709 208.575 196.338 208.915 196.064 209.329C195.791 209.744 195.625 210.219 195.58 210.714C195.535 211.208 195.614 211.706 195.808 212.163C195.957 212.534 196.178 212.873 196.459 213.158C196.741 213.443 197.076 213.668 197.446 213.822C197.815 213.975 198.212 214.053 198.612 214.051C199.013 214.049 199.408 213.967 199.777 213.809C200.145 213.652 200.478 213.423 200.756 213.135C201.034 212.847 201.252 212.506 201.396 212.133C201.541 211.76 201.609 211.361 201.598 210.961C201.586 210.561 201.494 210.167 201.328 209.803C201.096 209.263 200.711 208.803 200.221 208.479C199.73 208.155 199.156 207.981 198.568 207.979Z" fill="black"/>
<path d="M208.509 261.268C210.821 261.268 214.601 261.203 219.258 260.884C232.717 259.965 237.747 257.961 246.041 259.444C249.854 260.14 253.542 261.402 256.982 263.188C257.93 261.183 259.559 256.985 257.749 253.492C256.903 251.854 255.64 251.057 252.184 248.79C243.024 242.788 243.614 242.985 243.163 242.808C236.529 240.29 232.898 244.071 219.278 243.129C218.029 243.042 217 242.937 216.315 242.861C213.706 248.996 211.104 255.131 208.509 261.268Z" fill="white"/>
<path d="M257.309 264.146L256.661 263.814C253.28 262.069 249.659 260.834 245.917 260.149C240.667 259.21 236.819 259.689 230.992 260.414C227.758 260.817 224.096 261.259 219.312 261.598C215.709 261.846 212.078 261.975 208.517 261.984H207.452L215.856 242.108L216.377 242.168C217.347 242.278 218.334 242.365 219.312 242.433C225.768 242.881 229.943 242.255 233.298 241.753C237.056 241.189 239.782 240.781 243.396 242.159C243.735 242.298 244.049 242.488 244.33 242.723C245.175 243.307 247.166 244.674 252.57 248.215L252.815 248.376C256.199 250.591 257.459 251.42 258.375 253.168C260.162 256.608 258.939 260.679 257.619 263.489L257.309 264.146ZM240.135 258.226C242.157 258.223 244.175 258.404 246.165 258.764C249.802 259.43 253.328 260.601 256.641 262.243C257.707 259.776 258.516 256.512 257.123 253.834C256.379 252.396 255.198 251.623 252.049 249.554L251.803 249.393C246.385 245.844 244.389 244.471 243.537 243.885C243.345 243.722 243.132 243.587 242.903 243.481C239.624 242.235 237.191 242.602 233.512 243.152C230.09 243.665 225.83 244.302 219.222 243.845C218.399 243.789 217.57 243.718 216.749 243.631L209.577 260.566C212.763 260.535 215.997 260.408 219.21 260.188C223.955 259.864 227.598 259.413 230.812 259.012C234.288 258.57 237.177 258.212 240.129 258.212L240.135 258.226Z" fill="black"/>
<path d="M162.584 98.2582L161.862 99.8144C161.62 100.33 161.36 100.843 161.109 101.356C160.859 101.87 160.588 102.377 160.326 102.885L159.925 103.646L159.511 104.398C158.411 106.409 157.241 108.382 155.984 110.302C153.474 114.151 150.645 117.783 147.526 121.159C145.962 122.85 144.341 124.48 142.624 126.01C140.907 127.541 139.151 129.036 137.327 130.437C135.503 131.838 133.614 133.152 131.716 134.437C129.819 135.723 127.899 136.974 126.078 138.308C124.257 139.641 122.509 141.082 121.257 142.886C120.631 143.78 120.138 144.76 119.794 145.796C119.448 146.841 119.238 147.925 119.168 149.024C119.059 151.248 119.384 153.472 120.124 155.573C120.864 157.695 121.885 159.708 123.157 161.561C124.433 163.424 125.918 165.135 127.583 166.661C128.415 167.426 129.294 168.139 130.214 168.795L130.913 169.274L131.629 169.722C132.103 170.035 132.61 170.286 133.101 170.568C134.102 171.097 135.138 171.557 136.202 171.947C137.266 172.344 138.357 172.667 139.466 172.914C141.695 173.414 143.974 173.653 146.258 173.624C145.113 173.69 143.966 173.69 142.821 173.624C141.675 173.552 140.533 173.409 139.404 173.196C138.272 172.988 137.155 172.706 136.061 172.35C134.963 171.991 133.891 171.56 132.85 171.062C132.337 170.78 131.812 170.546 131.319 170.241L130.586 169.787L129.856 169.316C128.895 168.668 127.975 167.961 127.101 167.199C125.353 165.672 123.791 163.944 122.447 162.051C121.082 160.157 119.99 158.081 119.202 155.883C118.392 153.665 118.022 151.31 118.114 148.95C118.168 147.76 118.38 146.583 118.745 145.449C119.117 144.309 119.654 143.229 120.338 142.244C121.019 141.274 121.807 140.385 122.686 139.591C123.55 138.808 124.454 138.072 125.396 137.386C127.268 136.024 129.193 134.79 131.088 133.512C132.982 132.235 134.848 130.938 136.67 129.566C138.491 128.193 140.256 126.769 141.953 125.255C143.65 123.741 145.291 122.154 146.875 120.533C153.182 113.989 158.397 106.392 162.584 98.2582Z" fill="black"/>
<path d="M169.928 90.7224C170.209 89.8968 170.416 89.0476 170.545 88.1851C170.666 87.3307 170.692 86.4657 170.624 85.6056C170.568 84.7556 170.4 83.9167 170.125 83.1106C169.856 82.31 169.476 81.5509 168.998 80.8552C168.529 80.1734 167.951 79.5741 167.286 79.0819C166.623 78.5909 165.886 78.2101 165.101 77.9542C164.312 77.7008 163.493 77.5529 162.666 77.5144C160.143 77.4255 157.666 78.2047 155.649 79.7219C154.985 80.2235 154.394 80.8146 153.892 81.4782C153.643 81.8093 153.422 82.16 153.23 82.527C153.028 82.8888 152.856 83.2658 152.714 83.6547C152.155 85.2612 152.02 86.9848 152.322 88.6588C152.622 90.3745 153.266 92.0116 154.216 93.4712C153.054 92.1127 152.22 90.5045 151.781 88.7715C151.32 86.9986 151.354 85.1333 151.879 83.3784C152.152 82.4918 152.561 81.653 153.092 80.8918C153.629 80.1364 154.267 79.4582 154.989 78.8761C155.709 78.2988 156.5 77.8165 157.343 77.4411C159.024 76.6654 160.87 76.3113 162.719 76.4093C163.648 76.4586 164.566 76.637 165.445 76.9393C166.326 77.2522 167.151 77.7054 167.887 78.2812C168.619 78.8586 169.243 79.5611 169.731 80.3562C170.688 81.9217 171.183 83.7257 171.16 85.5604C171.155 86.456 171.047 87.3481 170.838 88.219C170.627 89.084 170.321 89.9235 169.928 90.7224Z" fill="black"/>
<path d="M208.413 111.455C208.958 112.086 209.498 112.722 210.034 113.361C210.57 114 211.095 114.647 211.61 115.303C212.653 116.606 213.677 117.921 214.683 119.25C215.684 120.586 216.656 121.945 217.621 123.31C218.585 124.674 219.509 126.064 220.426 127.459C222.269 130.245 223.967 133.129 225.672 135.99C227.378 138.852 229.055 141.753 230.62 144.702C232.185 147.651 233.665 150.681 234.773 153.878C235.035 154.682 235.294 155.491 235.486 156.32C235.596 156.731 235.669 157.166 235.768 157.571C235.866 157.977 235.912 158.417 235.945 158.846C236.14 160.537 236.007 162.37 235.232 163.982C235.122 164.177 235.038 164.383 234.911 164.566C234.784 164.749 234.671 164.941 234.539 165.13C234.268 165.481 233.963 165.804 233.628 166.094C232.963 166.663 232.213 167.122 231.404 167.456C229.825 168.101 228.15 168.482 226.447 168.583C225.602 168.623 224.756 168.676 223.927 168.64C223.507 168.623 223.081 168.64 222.67 168.597L221.418 168.504C221.001 168.485 220.586 168.42 220.172 168.372L218.929 168.217L216.462 167.783C219.766 168.191 223.112 168.42 226.391 168.034C228.015 167.875 229.603 167.452 231.091 166.782C231.811 166.454 232.476 166.018 233.064 165.488C233.64 164.963 234.1 164.323 234.415 163.61C234.725 162.894 234.915 162.132 234.978 161.355C235.054 160.56 235.038 159.759 234.93 158.967C234.894 158.567 234.809 158.169 234.744 157.769C234.68 157.369 234.581 156.974 234.462 156.582C234.265 155.793 234.003 155.014 233.735 154.239C232.63 151.138 231.156 148.169 229.597 145.24C228.038 142.311 226.416 139.413 224.753 136.52C223.09 133.628 221.435 130.752 219.679 127.925C217.922 125.097 216.115 122.309 214.232 119.566C213.292 118.19 212.337 116.825 211.367 115.472L209.896 113.456C209.408 112.791 208.915 112.12 208.413 111.455Z" fill="black"/>
<path d="M393.477 386.833C394.453 389.581 413.494 389.914 426.251 378.527C439.501 366.712 442.853 345.055 435.751 328.827C428.162 311.481 409.814 303.11 408.123 304.85C407.097 305.89 411.98 310.584 416.33 322.724C419.109 330.479 420.071 336.82 419.783 336.893C419.583 336.95 419.149 333.865 416.761 331.007C413.812 327.474 408.926 325.526 407.906 326.648C406.885 327.77 409.995 331.238 412.225 335.585C417.669 346.191 417.266 360.222 412.854 369.286C406.609 382.113 392.631 384.405 393.477 386.833Z" fill="black"/>
<path d="M312.352 216.132C306.784 218.128 306.259 221.427 296.372 227.031C288.462 231.514 281.106 233.758 277.371 234.877C264.05 238.866 258.482 237.801 257.504 240.981C256.249 245.018 263.52 252.317 271.214 255.587C279.795 259.232 285.186 256.289 290.968 261.152C293.001 262.861 295.059 265.511 296.747 271.098C301.822 287.929 296.372 307.573 294.968 312.696C291.419 325.664 286.88 344.107 282.505 368.516C281.008 368.718 279.54 369.096 278.132 369.644C277.427 369.937 276.739 370.27 276.071 370.642C274.605 371.47 273.232 372.453 271.975 373.574C268.158 377.177 267.602 383.292 268.623 386.145C270.78 392.172 283.539 391.617 307.491 392.248C334.274 392.953 344.042 394.323 368.336 392.88C389.13 391.648 391.247 390.092 392.581 388.324C399.085 379.649 388.721 362.898 365.516 318.571C355.48 299.4 347.755 283.92 343.346 274.975L343.879 240.549C347.874 239.489 354.744 237.034 360.724 230.964C365.432 226.171 371.352 217.35 368.899 214.035C366.272 210.485 355.004 214.548 349.822 217.015C346.438 218.63 343.281 220.682 340.431 223.118C326.462 214.009 317.759 214.193 312.352 216.132Z" fill="white"/>
<path d="M348.469 394.233C341.223 394.233 334.691 393.951 326.972 393.652C321.413 393.424 315.115 393.168 307.474 392.967C304.559 392.891 301.836 392.832 299.223 392.776C279.77 392.358 270.016 392.147 267.958 386.393C266.83 383.261 267.442 376.889 271.49 373.069C272.784 371.906 274.202 370.887 275.719 370.033C277.625 368.947 279.715 368.223 281.885 367.896C285.417 348.266 289.584 329.637 294.289 312.51L294.323 312.383C298.791 296.074 299.378 282.254 296.071 271.304C294.3 265.437 292.172 263.086 290.514 261.694C287.486 259.156 284.65 258.874 281.061 258.516C278.16 258.234 274.876 257.91 270.94 256.238C263.374 253.022 255.392 245.404 256.844 240.772C257.549 238.497 259.872 238.063 264.493 237.195C268.774 236.435 273.01 235.436 277.179 234.201C280.427 233.228 288.033 230.95 296.034 226.414C299.458 224.515 302.663 222.246 305.591 219.648C307.632 217.894 309.256 216.507 312.126 215.473C319.679 212.766 329.185 215.041 340.38 222.239C343.172 219.911 346.243 217.942 349.523 216.375C350.188 216.059 365.827 208.687 369.475 213.612C372.502 217.697 365.246 227.401 361.24 231.463C356.808 235.974 351.059 239.292 344.589 241.099L344.059 274.837C351.107 289.141 358.55 303.751 366.148 318.253C368.939 323.589 371.504 328.422 373.96 333.093C391.769 366.814 399.141 380.769 393.15 388.761C391.555 390.89 388.969 392.378 368.389 393.599C360.614 394.061 354.307 394.233 348.469 394.233ZM312.352 216.132L312.591 216.798C309.958 217.742 308.509 218.988 306.505 220.714C303.507 223.375 300.227 225.7 296.722 227.646C288.58 232.261 280.867 234.57 277.574 235.557C273.356 236.804 269.07 237.812 264.738 238.576C260.396 239.394 258.615 239.78 258.181 241.184C257.104 244.654 263.946 251.719 271.493 254.925C275.226 256.512 278.397 256.825 281.197 257.098C284.879 257.459 288.059 257.772 291.425 260.603C294.106 262.858 295.958 266.03 297.424 270.884C300.807 282.093 300.223 296.181 295.685 312.75L295.651 312.876C290.934 330.105 286.745 348.866 283.201 368.64L283.108 369.148L282.598 369.216C281.157 369.412 279.744 369.778 278.389 370.307C277.713 370.588 277.054 370.908 276.415 371.265C275.003 372.062 273.68 373.007 272.468 374.084C268.905 377.445 268.33 383.207 269.297 385.902C271.025 390.737 281.053 390.954 299.259 391.346C301.884 391.403 304.599 391.459 307.517 391.538C315.165 391.738 321.472 391.995 327.037 392.223C340.936 392.787 350.978 393.199 368.299 392.172C388.146 390.994 390.782 389.539 392.011 387.896C397.464 380.625 390.216 366.901 372.703 333.741C370.233 329.067 367.682 324.232 364.888 318.895C357.256 304.32 349.797 289.646 342.709 275.285L342.633 275.133L343.197 239.983L343.715 239.848C350.152 238.139 355.863 234.889 360.236 230.443C364.992 225.608 370.385 217.175 368.344 214.429C366.303 211.684 356.453 214.621 350.138 217.629C346.804 219.218 343.693 221.237 340.885 223.634L340.482 223.978L340.039 223.696C329.044 216.53 319.806 214.21 312.591 216.795L312.352 216.132Z" fill="black"/>
<path d="M319.05 241.06C320.587 241.06 321.833 239.803 321.833 238.252C321.833 236.701 320.587 235.444 319.05 235.444C317.513 235.444 316.268 236.701 316.268 238.252C316.268 239.803 317.513 241.06 319.05 241.06Z" fill="black"/>
<path d="M303.993 233.806C305.53 233.806 306.775 232.549 306.775 230.998C306.775 229.447 305.53 228.19 303.993 228.19C302.456 228.19 301.21 229.447 301.21 230.998C301.21 232.549 302.456 233.806 303.993 233.806Z" fill="black"/>
<path d="M269.779 236.851C273.466 238.971 274.656 243.789 272.511 247.301C271.967 248.166 271.252 248.911 270.41 249.488C269.567 250.065 268.615 250.464 267.612 250.658C266.61 250.853 265.578 250.839 264.581 250.619C263.583 250.398 262.642 249.975 261.815 249.376C260.729 248.915 259.786 248.174 259.082 247.228C258.378 246.282 257.939 245.166 257.808 243.994C257.676 242.232 258.243 240.489 259.387 239.143L269.779 236.851Z" fill="black"/>
<path d="M336.208 220.533C338.425 218.458 340.256 216.005 341.612 213.288C343.978 208.517 346.05 200.469 343.338 198.537C340.217 196.31 331.81 202.952 327.79 206.964C325.332 209.426 323.204 212.197 321.461 215.207C324.346 215.665 327.175 216.426 329.901 217.477C332.085 218.318 334.194 219.341 336.208 220.533Z" fill="black"/>
<path d="M296.409 386.057C296.367 386.062 296.324 386.062 296.282 386.057C296.119 386.023 295.976 385.926 295.884 385.788C295.792 385.649 295.759 385.479 295.792 385.316L307.883 325.444C307.916 325.281 308.013 325.137 308.152 325.044C308.291 324.952 308.461 324.918 308.625 324.951C308.788 324.984 308.932 325.08 309.025 325.219C309.118 325.359 309.151 325.529 309.118 325.692L297.024 385.564C296.993 385.704 296.916 385.83 296.804 385.92C296.692 386.009 296.553 386.058 296.409 386.057Z" fill="black"/>
<path d="M273.517 385.372C273.434 385.372 273.353 385.355 273.277 385.323C273.2 385.291 273.131 385.245 273.073 385.186C273.015 385.128 272.969 385.058 272.938 384.982C272.907 384.905 272.891 384.823 272.891 384.741C272.901 382.128 273.691 379.578 275.161 377.418C276.631 375.258 278.713 373.586 281.14 372.618C281.217 372.587 281.299 372.572 281.381 372.573C281.464 372.574 281.545 372.591 281.621 372.624C281.697 372.656 281.766 372.703 281.824 372.762C281.881 372.821 281.927 372.891 281.958 372.968C281.988 373.044 282.004 373.126 282.003 373.209C282.002 373.291 281.985 373.373 281.952 373.449C281.92 373.525 281.873 373.594 281.814 373.651C281.755 373.709 281.685 373.755 281.608 373.785C279.411 374.661 277.526 376.175 276.197 378.131C274.868 380.088 274.156 382.398 274.151 384.763C274.146 384.928 274.077 385.083 273.958 385.197C273.84 385.311 273.681 385.374 273.517 385.372Z" fill="black"/>
<path d="M280.528 386.348C280.446 386.347 280.364 386.331 280.287 386.299C280.211 386.266 280.142 386.22 280.084 386.161C280.026 386.102 279.98 386.032 279.949 385.955C279.917 385.878 279.902 385.796 279.903 385.713C279.912 383.101 280.703 380.55 282.173 378.39C283.643 376.23 285.725 374.559 288.152 373.591C288.306 373.529 288.479 373.531 288.633 373.596C288.786 373.662 288.907 373.786 288.969 373.94C289.031 374.095 289.029 374.268 288.964 374.422C288.898 374.575 288.774 374.696 288.62 374.758C286.423 375.635 284.539 377.149 283.21 379.105C281.881 381.062 281.167 383.371 281.16 385.736C281.156 385.9 281.087 386.056 280.969 386.171C280.851 386.285 280.693 386.349 280.528 386.348Z" fill="black"/>
<path d="M311.954 387.754C311.599 386.531 310.728 382.948 312.332 379.057C315.044 372.483 322.295 371.18 322.797 371.099C321.731 369.525 314.621 358.666 318.568 347.646C323.448 334.017 342.932 328.779 356.574 334.567C368.415 339.585 372.728 351.57 373.562 354.04C368.643 343.431 358.043 337.37 347.936 338.926C335.833 340.792 330.555 352.647 330.085 353.749C325.309 364.97 330.55 375.139 331.238 376.418C330.612 376.091 325.173 373.368 319.434 376.137C315.064 378.234 312.185 382.719 311.954 387.754Z" fill="black"/>
<path d="M316.877 389.063C316.794 389.062 316.712 389.046 316.635 389.014C316.559 388.981 316.49 388.935 316.432 388.876C316.374 388.817 316.328 388.747 316.297 388.67C316.266 388.593 316.25 388.511 316.251 388.428C316.26 385.816 317.051 383.265 318.521 381.105C319.991 378.945 322.073 377.274 324.5 376.306C324.654 376.244 324.828 376.246 324.981 376.311C325.134 376.377 325.255 376.501 325.317 376.655C325.379 376.81 325.377 376.983 325.312 377.137C325.246 377.29 325.122 377.411 324.968 377.473C322.77 378.348 320.885 379.861 319.556 381.817C318.226 383.773 317.513 386.083 317.508 388.448C317.504 388.613 317.436 388.77 317.318 388.885C317.2 389 317.041 389.063 316.877 389.063Z" fill="black"/>
<path d="M360.415 228.138C364.549 223.958 366.865 219.545 365.587 218.282C364.31 217.018 359.923 219.383 355.789 223.563C351.655 227.744 349.339 232.157 350.617 233.42C351.894 234.684 356.281 232.319 360.415 228.138Z" fill="black"/>
<path d="M343.986 274.913C336.828 275.243 329.304 275.778 321.458 276.584C313.192 277.43 305.335 278.499 297.92 279.708C297.999 282.593 298.047 285.524 298.064 288.501C298.064 289.766 298.064 291.025 298.064 292.279C307.159 291.831 316.857 291.027 327.071 289.742C335.024 288.738 342.576 287.526 349.746 286.181C349.188 283.902 348.341 281.704 347.225 279.641C346.315 277.955 345.229 276.37 343.986 274.913Z" fill="#8211FA"/>
<path d="M297.387 292.987V292.279C297.387 291.031 297.387 289.774 297.387 288.507C297.387 285.598 297.323 282.646 297.244 279.731L297.227 279.144L297.805 279.049C305.597 277.777 313.53 276.726 321.382 275.919C328.853 275.152 336.448 274.589 343.935 274.245H344.265L344.477 274.496C347.32 277.825 349.342 281.777 350.377 286.032L350.546 286.722L349.85 286.852C342.348 288.262 334.705 289.463 327.136 290.418C317.528 291.634 307.751 292.491 298.078 292.956L297.387 292.987ZM298.605 280.281C298.679 283.015 298.721 285.778 298.735 288.501C298.735 289.53 298.735 290.557 298.735 291.574C308.143 291.095 317.643 290.252 326.983 289.074C334.291 288.149 341.663 286.999 348.911 285.651C347.909 281.965 346.127 278.538 343.684 275.601C336.312 275.947 328.858 276.503 321.523 277.256C313.894 278.045 306.186 279.054 298.605 280.278V280.281Z" fill="black"/>
<path d="M304.819 303.003C309.463 303.003 313.228 298.774 313.228 293.556C313.228 288.339 309.463 284.109 304.819 284.109C300.174 284.109 296.409 288.339 296.409 293.556C296.409 298.774 300.174 303.003 304.819 303.003Z" fill="#8211FA"/>
<path d="M304.819 303.672C299.812 303.672 295.735 299.135 295.735 293.556C295.735 287.977 299.812 283.438 304.819 283.438C309.826 283.438 313.902 287.977 313.902 293.556C313.902 299.135 309.826 303.672 304.819 303.672ZM304.819 284.783C300.551 284.783 297.08 288.73 297.08 293.559C297.08 298.388 300.551 302.332 304.819 302.332C309.087 302.332 312.558 298.386 312.558 293.559C312.558 288.733 309.087 284.78 304.819 284.78V284.783Z" fill="black"/>
<path d="M296.02 258.009C295.006 258.019 293.993 257.925 292.998 257.727C292.835 257.689 292.693 257.589 292.605 257.447C292.516 257.305 292.487 257.134 292.524 256.971C292.562 256.808 292.662 256.667 292.804 256.578C292.946 256.489 293.117 256.46 293.28 256.498C293.393 256.523 300.776 258.088 306.051 252.742C306.109 252.684 306.178 252.637 306.254 252.605C306.33 252.573 306.412 252.557 306.495 252.556C306.577 252.556 306.659 252.572 306.736 252.603C306.812 252.634 306.882 252.68 306.94 252.738C306.999 252.796 307.046 252.866 307.078 252.942C307.11 253.018 307.126 253.1 307.127 253.182C307.127 253.265 307.111 253.347 307.08 253.423C307.049 253.499 307.003 253.569 306.945 253.628C303.319 257.298 298.901 258.009 296.02 258.009Z" fill="black"/>
<path d="M306.11 291.295V289.781C306.098 289.565 306.173 289.352 306.317 289.19C306.461 289.028 306.663 288.93 306.88 288.916H308.227C308.444 288.93 308.646 289.028 308.79 289.19C308.934 289.352 309.008 289.565 308.997 289.781V291.295C309.009 291.512 308.935 291.725 308.791 291.887C308.647 292.049 308.444 292.148 308.227 292.161H306.88C306.663 292.148 306.46 292.049 306.316 291.887C306.172 291.725 306.098 291.512 306.11 291.295ZM306.88 289.604C306.858 289.605 306.836 289.61 306.817 289.619C306.797 289.629 306.779 289.642 306.764 289.658C306.75 289.675 306.738 289.693 306.731 289.714C306.724 289.735 306.721 289.757 306.722 289.778V291.295C306.719 291.34 306.735 291.383 306.764 291.416C306.794 291.45 306.835 291.47 306.88 291.473H308.227C308.249 291.471 308.27 291.466 308.29 291.456C308.31 291.446 308.327 291.433 308.342 291.416C308.356 291.4 308.367 291.38 308.374 291.36C308.381 291.339 308.384 291.317 308.382 291.295V289.781C308.385 289.738 308.37 289.695 308.341 289.662C308.312 289.629 308.271 289.609 308.227 289.606L306.88 289.604Z" fill="black"/>
<path d="M308.554 287.63C308.468 287.635 308.387 287.674 308.329 287.739C308.272 287.803 308.242 287.888 308.247 287.974C308.242 288.06 308.272 288.145 308.329 288.21C308.387 288.274 308.468 288.313 308.554 288.318H309.183C309.313 288.326 309.436 288.385 309.523 288.483C309.61 288.581 309.655 288.709 309.648 288.84V289.528C309.643 289.614 309.673 289.698 309.731 289.763C309.788 289.827 309.869 289.866 309.955 289.871C310.041 289.866 310.121 289.826 310.178 289.762C310.235 289.698 310.264 289.613 310.26 289.528V288.476C310.271 288.26 310.197 288.048 310.053 287.886C309.908 287.724 309.706 287.626 309.49 287.613L308.554 287.63Z" fill="black"/>
<path d="M301.083 299.493C301.17 299.488 301.25 299.449 301.308 299.385C301.365 299.32 301.395 299.236 301.391 299.15C301.395 299.063 301.366 298.978 301.308 298.913C301.251 298.848 301.17 298.809 301.083 298.803H300.443C300.313 298.795 300.191 298.737 300.104 298.64C300.016 298.542 299.971 298.414 299.978 298.284V297.596C299.981 297.553 299.975 297.51 299.961 297.47C299.947 297.429 299.925 297.392 299.896 297.36C299.868 297.328 299.833 297.302 299.794 297.283C299.756 297.265 299.714 297.254 299.671 297.252C299.628 297.255 299.587 297.266 299.548 297.284C299.51 297.303 299.476 297.329 299.447 297.361C299.419 297.393 299.397 297.43 299.383 297.47C299.369 297.511 299.364 297.554 299.366 297.596V298.625C299.355 298.842 299.429 299.054 299.573 299.216C299.717 299.378 299.92 299.477 300.136 299.491L301.083 299.493Z" fill="black"/>
<path d="M299.38 289.53C299.376 289.617 299.405 289.701 299.463 289.766C299.521 289.83 299.601 289.869 299.688 289.874C299.774 289.869 299.855 289.83 299.912 289.766C299.97 289.701 300 289.617 299.995 289.53V288.814C299.987 288.684 300.032 288.556 300.118 288.458C300.205 288.36 300.327 288.301 300.457 288.293H301.069C301.155 288.288 301.236 288.249 301.294 288.184C301.351 288.12 301.381 288.035 301.376 287.949C301.379 287.906 301.373 287.863 301.359 287.823C301.345 287.782 301.323 287.745 301.295 287.713C301.266 287.681 301.231 287.655 301.193 287.636C301.154 287.618 301.112 287.607 301.069 287.605H300.161C299.945 287.618 299.743 287.716 299.599 287.878C299.454 288.039 299.38 288.251 299.392 288.468L299.38 289.53Z" fill="black"/>
<path d="M310.257 297.582C310.262 297.496 310.232 297.411 310.174 297.347C310.117 297.282 310.036 297.243 309.95 297.238C309.864 297.243 309.783 297.282 309.725 297.347C309.668 297.411 309.638 297.496 309.643 297.582V298.298C309.65 298.429 309.606 298.557 309.519 298.655C309.433 298.752 309.311 298.812 309.18 298.82H308.568C308.526 298.822 308.484 298.833 308.445 298.851C308.406 298.87 308.372 298.896 308.343 298.928C308.314 298.96 308.292 298.997 308.278 299.037C308.264 299.078 308.258 299.121 308.261 299.164C308.257 299.25 308.286 299.335 308.344 299.399C308.401 299.464 308.482 299.503 308.568 299.508H309.487C309.704 299.494 309.906 299.395 310.05 299.233C310.194 299.071 310.269 298.859 310.257 298.642V297.582Z" fill="black"/>
<path d="M307.553 290.92C307.734 290.92 307.88 290.756 307.88 290.554C307.88 290.351 307.734 290.187 307.553 290.187C307.373 290.187 307.226 290.351 307.226 290.554C307.226 290.756 307.373 290.92 307.553 290.92Z" fill="black"/>
<path d="M306.186 297.314V295.806C306.175 295.589 306.249 295.377 306.393 295.215C306.537 295.053 306.739 294.954 306.956 294.94H308.303C308.52 294.954 308.722 295.053 308.866 295.215C309.01 295.377 309.085 295.589 309.073 295.806V297.32C309.085 297.536 309.01 297.749 308.866 297.911C308.722 298.073 308.52 298.172 308.303 298.185H306.956C306.738 298.172 306.535 298.072 306.391 297.909C306.247 297.746 306.173 297.532 306.186 297.314ZM306.956 295.623C306.912 295.626 306.871 295.646 306.842 295.678C306.813 295.711 306.798 295.754 306.801 295.797V297.311C306.799 297.333 306.802 297.355 306.809 297.376C306.816 297.397 306.827 297.416 306.841 297.432C306.856 297.449 306.873 297.462 306.893 297.472C306.913 297.482 306.934 297.488 306.956 297.489H308.303C308.348 297.486 308.389 297.466 308.419 297.433C308.448 297.399 308.464 297.356 308.461 297.311V295.806C308.462 295.784 308.459 295.762 308.452 295.742C308.445 295.721 308.433 295.702 308.419 295.686C308.404 295.67 308.386 295.656 308.366 295.647C308.347 295.638 308.325 295.632 308.303 295.631L306.956 295.623Z" fill="black"/>
<path d="M307.63 296.939C307.81 296.939 307.957 296.775 307.957 296.573C307.957 296.37 307.81 296.206 307.63 296.206C307.449 296.206 307.302 296.37 307.302 296.573C307.302 296.775 307.449 296.939 307.63 296.939Z" fill="black"/>
<path d="M300.807 291.295V289.781C300.795 289.565 300.87 289.352 301.014 289.19C301.158 289.028 301.36 288.93 301.577 288.916H302.924C303.141 288.929 303.344 289.027 303.489 289.189C303.634 289.351 303.708 289.564 303.697 289.781V291.295C303.708 291.512 303.634 291.725 303.489 291.887C303.344 292.049 303.141 292.148 302.924 292.161H301.571C301.355 292.146 301.154 292.047 301.011 291.885C300.868 291.723 300.795 291.511 300.807 291.295ZM301.577 289.604C301.533 289.607 301.492 289.627 301.463 289.659C301.434 289.692 301.419 289.735 301.422 289.778V291.295C301.419 291.339 301.434 291.382 301.463 291.415C301.492 291.449 301.533 291.469 301.577 291.473H302.924C302.969 291.47 303.01 291.45 303.04 291.416C303.069 291.383 303.084 291.34 303.082 291.295V289.781C303.083 289.759 303.08 289.738 303.073 289.717C303.065 289.696 303.054 289.677 303.039 289.661C303.025 289.645 303.007 289.632 302.987 289.622C302.968 289.613 302.946 289.608 302.924 289.606L301.577 289.604Z" fill="black"/>
<path d="M302.25 290.92C302.431 290.92 302.577 290.756 302.577 290.554C302.577 290.351 302.431 290.187 302.25 290.187C302.07 290.187 301.923 290.351 301.923 290.554C301.923 290.756 302.07 290.92 302.25 290.92Z" fill="black"/>
<path d="M301.14 293.505C301.32 293.505 301.467 293.341 301.467 293.139C301.467 292.937 301.32 292.772 301.14 292.772C300.959 292.772 300.813 292.937 300.813 293.139C300.813 293.341 300.959 293.505 301.14 293.505Z" fill="black"/>
<path d="M303.155 296.925C303.336 296.925 303.482 296.761 303.482 296.559C303.482 296.356 303.336 296.192 303.155 296.192C302.975 296.192 302.828 296.356 302.828 296.559C302.828 296.761 302.975 296.925 303.155 296.925Z" fill="black"/>
<path d="M304.235 289.265V291.315C304.231 291.36 304.236 291.406 304.251 291.449C304.265 291.492 304.288 291.532 304.319 291.565C304.35 291.599 304.387 291.626 304.429 291.644C304.47 291.663 304.515 291.672 304.561 291.672C304.606 291.672 304.651 291.663 304.693 291.644C304.734 291.626 304.772 291.599 304.802 291.565C304.833 291.532 304.856 291.492 304.871 291.449C304.885 291.406 304.891 291.36 304.886 291.315V289.265C304.891 289.173 304.859 289.084 304.798 289.015C304.737 288.946 304.651 288.905 304.559 288.899C304.516 288.899 304.473 288.909 304.434 288.928C304.394 288.946 304.359 288.973 304.331 289.006C304.269 289.078 304.234 289.17 304.235 289.265Z" fill="black"/>
<path d="M307.235 293.551H305.411C305.319 293.559 305.235 293.601 305.173 293.668C305.111 293.736 305.076 293.824 305.076 293.916C305.076 294.007 305.111 294.096 305.173 294.163C305.235 294.231 305.319 294.273 305.411 294.281H307.235C307.327 294.275 307.412 294.233 307.474 294.165C307.535 294.096 307.566 294.006 307.562 293.914C307.563 293.82 307.529 293.728 307.466 293.658C307.437 293.625 307.401 293.598 307.362 293.58C307.322 293.562 307.279 293.552 307.235 293.551Z" fill="black"/>
<path d="M304.892 290.948V292.51C304.886 292.557 304.89 292.603 304.903 292.648C304.917 292.693 304.94 292.734 304.97 292.769C305.001 292.804 305.039 292.832 305.081 292.851C305.124 292.87 305.17 292.88 305.216 292.88C305.263 292.88 305.309 292.87 305.351 292.851C305.394 292.832 305.431 292.804 305.462 292.769C305.493 292.734 305.516 292.693 305.529 292.648C305.543 292.603 305.546 292.557 305.54 292.51V291.315C305.543 291.22 305.509 291.128 305.447 291.056C305.419 291.022 305.383 290.995 305.344 290.977C305.304 290.958 305.26 290.949 305.216 290.948H304.892Z" fill="black"/>
<path d="M304.238 290.948V291.315C304.235 291.36 304.242 291.405 304.257 291.448C304.271 291.491 304.295 291.53 304.325 291.564C304.355 291.598 304.391 291.625 304.432 291.645C304.473 291.665 304.517 291.676 304.562 291.679H305.219C305.264 291.676 305.309 291.665 305.349 291.645C305.39 291.625 305.427 291.598 305.457 291.564C305.487 291.53 305.51 291.491 305.525 291.448C305.54 291.405 305.546 291.36 305.543 291.315C305.544 291.22 305.511 291.128 305.45 291.056C305.422 291.022 305.386 290.995 305.346 290.977C305.307 290.958 305.263 290.949 305.219 290.948H304.238Z" fill="black"/>
<path d="M304.266 289.556V289.919C304.262 290.011 304.293 290.101 304.354 290.17C304.416 290.238 304.501 290.28 304.593 290.286H305.25C305.342 290.28 305.427 290.238 305.488 290.17C305.549 290.101 305.58 290.011 305.574 289.919C305.575 289.825 305.541 289.734 305.478 289.663C305.45 289.63 305.415 289.603 305.376 289.584C305.336 289.566 305.294 289.556 305.25 289.556H304.266Z" fill="black"/>
<path d="M306.415 294.244H306.742C306.833 294.239 306.919 294.198 306.98 294.13C307.041 294.062 307.073 293.972 307.069 293.881V293.145C307.074 293.053 307.043 292.963 306.982 292.893C306.922 292.824 306.836 292.782 306.744 292.775C306.7 292.775 306.657 292.785 306.617 292.804C306.577 292.822 306.542 292.849 306.513 292.883C306.45 292.953 306.416 293.045 306.417 293.139L306.415 294.244Z" fill="black"/>
<path d="M307.742 293.176C307.74 293.271 307.773 293.363 307.835 293.435C307.863 293.468 307.898 293.495 307.938 293.513C307.977 293.532 308.02 293.542 308.064 293.542H308.396H309.045V293.176C309.046 293.156 309.046 293.136 309.045 293.116C309.037 293.036 309 292.96 308.942 292.904C308.884 292.848 308.807 292.814 308.726 292.809H308.67H308.069C308.024 292.811 307.979 292.823 307.937 292.842C307.896 292.862 307.859 292.89 307.829 292.924C307.798 292.958 307.775 292.998 307.76 293.041C307.745 293.084 307.739 293.13 307.742 293.176Z" fill="black"/>
<path d="M308.393 293.181V293.917C308.39 294.008 308.422 294.098 308.483 294.166C308.544 294.234 308.629 294.275 308.721 294.281C308.765 294.28 308.808 294.27 308.848 294.251C308.888 294.232 308.923 294.205 308.952 294.171C309.014 294.099 309.047 294.006 309.045 293.911V293.125C309.037 293.044 309 292.969 308.942 292.912C308.884 292.856 308.807 292.822 308.726 292.818H308.67C308.588 292.835 308.515 292.882 308.465 292.949C308.414 293.015 308.389 293.098 308.393 293.181Z" fill="black"/>
<path d="M304.819 295.648C304.822 295.555 304.793 295.463 304.737 295.389C304.714 295.356 304.685 295.329 304.65 295.309C304.615 295.29 304.577 295.278 304.537 295.276H304.255H303.691V295.327V295.64C303.69 295.66 303.69 295.681 303.691 295.702C303.693 295.779 303.722 295.852 303.774 295.91C303.826 295.967 303.896 296.003 303.973 296.012H304.021H304.554C304.635 295.995 304.708 295.949 304.757 295.881C304.806 295.814 304.828 295.731 304.819 295.648Z" fill="black"/>
<path d="M304.314 295.445V294.707C304.319 294.615 304.288 294.525 304.228 294.456C304.167 294.388 304.081 294.346 303.99 294.34C303.946 294.341 303.903 294.35 303.863 294.368C303.824 294.386 303.788 294.412 303.759 294.444C303.696 294.516 303.662 294.609 303.663 294.704V295.49C303.669 295.572 303.705 295.648 303.763 295.705C303.821 295.763 303.897 295.797 303.979 295.803H304.032C304.114 295.787 304.187 295.741 304.239 295.676C304.29 295.61 304.317 295.529 304.314 295.445Z" fill="black"/>
<path d="M305.571 297.111V296.37C305.577 296.279 305.546 296.189 305.486 296.121C305.426 296.052 305.341 296.01 305.25 296.003C305.206 296.004 305.163 296.013 305.123 296.031C305.084 296.049 305.048 296.075 305.019 296.108C304.957 296.18 304.922 296.272 304.92 296.367V297.154C304.927 297.235 304.962 297.311 305.02 297.369C305.078 297.426 305.155 297.461 305.236 297.466H305.289C305.371 297.45 305.444 297.405 305.495 297.34C305.547 297.275 305.574 297.194 305.571 297.111Z" fill="black"/>
<path d="M304.59 297.472H305.236C305.281 297.47 305.326 297.459 305.367 297.439C305.408 297.42 305.445 297.392 305.475 297.359C305.506 297.325 305.529 297.285 305.544 297.242C305.559 297.199 305.566 297.154 305.563 297.108C305.565 297.014 305.532 296.921 305.47 296.849C305.441 296.816 305.405 296.79 305.366 296.771C305.326 296.753 305.283 296.743 305.239 296.742H304.54C304.459 296.76 304.387 296.804 304.335 296.869C304.284 296.934 304.256 297.015 304.258 297.097V297.159C304.264 297.244 304.302 297.322 304.363 297.38C304.425 297.438 304.506 297.471 304.59 297.472Z" fill="black"/>
<path d="M304.269 297.103V297.839C304.264 297.93 304.296 298.02 304.357 298.089C304.419 298.158 304.504 298.199 304.596 298.205C304.64 298.205 304.682 298.195 304.722 298.176C304.761 298.158 304.796 298.131 304.824 298.098C304.887 298.026 304.921 297.934 304.92 297.839V297.049C304.914 296.969 304.878 296.893 304.82 296.837C304.762 296.78 304.685 296.746 304.605 296.742H304.548C304.466 296.759 304.393 296.804 304.342 296.871C304.29 296.937 304.265 297.019 304.269 297.103Z" fill="black"/>
<path d="M303.939 298.208H304.596C304.687 298.201 304.772 298.159 304.832 298.09C304.893 298.022 304.924 297.933 304.92 297.841C304.921 297.746 304.887 297.654 304.824 297.582C304.795 297.549 304.76 297.523 304.72 297.504C304.68 297.486 304.637 297.476 304.593 297.475H303.891C303.809 297.491 303.736 297.536 303.684 297.602C303.632 297.667 303.606 297.749 303.609 297.833V297.892C303.616 297.976 303.653 298.055 303.714 298.113C303.775 298.172 303.855 298.205 303.939 298.208Z" fill="black"/>
<path d="M302.039 298.18H302.699C302.79 298.173 302.875 298.131 302.936 298.063C302.996 297.994 303.028 297.905 303.023 297.813C303.024 297.718 302.989 297.626 302.927 297.554C302.898 297.521 302.863 297.494 302.823 297.476C302.783 297.458 302.74 297.448 302.696 297.447H301.994C301.912 297.464 301.839 297.509 301.788 297.575C301.736 297.64 301.709 297.722 301.712 297.805V297.867C301.718 297.95 301.754 298.029 301.815 298.087C301.875 298.145 301.955 298.178 302.039 298.18Z" fill="black"/>
<path d="M301.137 298.18H301.794C301.885 298.173 301.97 298.131 302.031 298.063C302.091 297.994 302.123 297.905 302.118 297.813C302.119 297.718 302.085 297.626 302.022 297.554C301.993 297.521 301.958 297.494 301.918 297.476C301.878 297.458 301.835 297.448 301.791 297.447H301.089C301.007 297.464 300.935 297.509 300.883 297.575C300.831 297.64 300.805 297.722 300.807 297.805V297.867C300.813 297.951 300.85 298.03 300.911 298.088C300.972 298.146 301.053 298.179 301.137 298.18Z" fill="black"/>
<path d="M301.54 298.18H302.197C302.288 298.174 302.374 298.132 302.435 298.063C302.495 297.995 302.527 297.905 302.521 297.813C302.522 297.718 302.488 297.626 302.425 297.554C302.396 297.521 302.361 297.494 302.321 297.476C302.281 297.458 302.238 297.448 302.194 297.447H301.495C301.414 297.464 301.341 297.51 301.29 297.575C301.238 297.641 301.211 297.722 301.213 297.805V297.867C301.219 297.95 301.255 298.029 301.316 298.087C301.376 298.145 301.456 298.178 301.54 298.18Z" fill="black"/>
<path d="M301.391 297.077V297.813C301.385 297.905 301.416 297.995 301.477 298.063C301.538 298.132 301.623 298.174 301.715 298.18C301.759 298.18 301.802 298.17 301.842 298.152C301.882 298.133 301.917 298.106 301.946 298.073C302.008 298.002 302.043 297.91 302.042 297.816V297.027C302.035 296.946 301.999 296.87 301.941 296.813C301.883 296.757 301.807 296.722 301.726 296.717H301.67C301.588 296.734 301.516 296.78 301.465 296.846C301.414 296.912 301.387 296.994 301.391 297.077Z" fill="black"/>
<path d="M302.465 293.17V293.362C302.507 293.419 302.563 293.465 302.628 293.497C302.692 293.528 302.762 293.544 302.834 293.542H303.697C303.802 293.55 303.905 293.516 303.985 293.447C304.065 293.378 304.114 293.281 304.122 293.176C304.121 293.127 304.11 293.078 304.088 293.034C304.067 292.99 304.036 292.95 303.998 292.919C303.913 292.848 303.805 292.81 303.694 292.812H302.772C302.719 292.82 302.668 292.836 302.62 292.86C302.571 292.896 302.532 292.942 302.505 292.996C302.478 293.05 302.464 293.11 302.465 293.17Z" fill="black"/>
<path d="M302.465 293.903V294.639C302.462 294.684 302.468 294.73 302.483 294.773C302.498 294.816 302.522 294.855 302.552 294.889C302.583 294.923 302.62 294.95 302.661 294.97C302.702 294.989 302.746 295 302.792 295.002C302.835 295.002 302.878 294.992 302.918 294.974C302.957 294.955 302.992 294.928 303.02 294.895C303.083 294.824 303.117 294.731 303.116 294.636V293.849C303.108 293.775 303.076 293.706 303.025 293.651C302.974 293.596 302.907 293.559 302.834 293.545H302.792H302.738C302.694 293.553 302.651 293.57 302.614 293.596C302.567 293.632 302.529 293.678 302.503 293.732C302.477 293.785 302.464 293.844 302.465 293.903Z" fill="black"/>
<path d="M302.465 293.17V293.906C302.46 293.997 302.492 294.087 302.553 294.155C302.615 294.223 302.7 294.264 302.792 294.27C302.835 294.269 302.878 294.258 302.917 294.24C302.957 294.222 302.992 294.195 303.02 294.162C303.083 294.091 303.117 293.998 303.116 293.903V293.116C303.108 293.042 303.076 292.972 303.025 292.917C302.975 292.861 302.908 292.824 302.834 292.809H302.738C302.694 292.817 302.652 292.835 302.614 292.86C302.567 292.896 302.528 292.943 302.502 292.997C302.476 293.051 302.464 293.11 302.465 293.17Z" fill="black"/>
<path d="M302.772 293.514H302.115C302.024 293.52 301.938 293.562 301.877 293.63C301.817 293.699 301.785 293.789 301.791 293.88C301.79 293.976 301.824 294.068 301.887 294.14C301.915 294.173 301.95 294.199 301.989 294.217C302.029 294.235 302.072 294.244 302.115 294.244H302.817C302.891 294.23 302.959 294.192 303.01 294.136C303.06 294.08 303.092 294.009 303.099 293.934C303.099 293.934 303.099 293.903 303.099 293.886V293.832C303.093 293.783 303.078 293.735 303.054 293.692C303.028 293.639 302.988 293.594 302.938 293.563C302.888 293.531 302.831 293.514 302.772 293.514Z" fill="black"/>
<path d="M304.165 292.809H303.508C303.416 292.815 303.331 292.857 303.27 292.926C303.209 292.994 303.178 293.084 303.184 293.176C303.182 293.27 303.217 293.362 303.279 293.432C303.308 293.466 303.343 293.493 303.383 293.511C303.423 293.53 303.467 293.539 303.511 293.539H304.21C304.284 293.525 304.351 293.487 304.402 293.431C304.453 293.375 304.484 293.304 304.492 293.229C304.493 293.213 304.493 293.197 304.492 293.181V293.119C304.486 293.071 304.47 293.024 304.447 292.981C304.42 292.929 304.379 292.886 304.33 292.856C304.28 292.825 304.223 292.809 304.165 292.809Z" fill="black"/>
<path d="M302.045 295.265H301.391C301.299 295.27 301.213 295.312 301.152 295.381C301.091 295.449 301.059 295.539 301.064 295.631C301.062 295.726 301.097 295.817 301.159 295.888C301.188 295.921 301.223 295.948 301.263 295.967C301.303 295.985 301.347 295.995 301.391 295.995H302.093C302.167 295.981 302.234 295.943 302.285 295.887C302.336 295.831 302.367 295.76 302.374 295.685C302.376 295.669 302.376 295.653 302.374 295.637V295.575C302.367 295.527 302.352 295.48 302.329 295.437C302.302 295.385 302.261 295.342 302.211 295.311C302.161 295.281 302.103 295.265 302.045 295.265Z" fill="black"/>
<path d="M301.794 295.268H301.14C301.048 295.273 300.963 295.315 300.902 295.384C300.841 295.453 300.81 295.543 300.815 295.634C300.815 295.729 300.848 295.821 300.908 295.894C300.937 295.926 300.973 295.953 301.013 295.971C301.053 295.99 301.096 296 301.14 296.001H301.853C301.927 295.986 301.995 295.948 302.045 295.893C302.096 295.837 302.128 295.766 302.135 295.69C302.135 295.69 302.135 295.66 302.135 295.643V295.583C302.129 295.534 302.114 295.486 302.09 295.442C302.062 295.388 302.019 295.343 301.967 295.312C301.915 295.281 301.855 295.266 301.794 295.268Z" fill="black"/>
<path d="M301.467 295.346V294.611C301.469 294.565 301.463 294.52 301.448 294.477C301.433 294.434 301.409 294.394 301.379 294.361C301.349 294.327 301.312 294.299 301.271 294.28C301.23 294.26 301.185 294.249 301.14 294.247C301.096 294.246 301.053 294.254 301.013 294.272C300.974 294.29 300.939 294.317 300.911 294.351C300.849 294.423 300.815 294.515 300.815 294.611V295.397C300.822 295.472 300.854 295.543 300.905 295.598C300.955 295.654 301.023 295.691 301.097 295.705H301.193C301.238 295.697 301.28 295.679 301.317 295.654C301.364 295.618 301.402 295.571 301.428 295.518C301.454 295.464 301.467 295.406 301.467 295.346Z" fill="black"/>
<path d="M301.467 295.628V294.893C301.471 294.801 301.44 294.711 301.378 294.642C301.317 294.574 301.231 294.532 301.14 294.526C301.096 294.527 301.053 294.536 301.014 294.555C300.974 294.573 300.94 294.6 300.911 294.633C300.848 294.705 300.814 294.797 300.815 294.893V295.679C300.823 295.754 300.854 295.824 300.905 295.88C300.956 295.935 301.023 295.973 301.097 295.986H301.193C301.238 295.98 301.281 295.962 301.317 295.936C301.365 295.9 301.404 295.854 301.43 295.8C301.456 295.747 301.468 295.688 301.467 295.628Z" fill="black"/>
<path d="M305.574 293.551H305.25C305.205 293.553 305.16 293.564 305.119 293.583C305.078 293.603 305.041 293.63 305.011 293.664C304.98 293.698 304.957 293.737 304.942 293.78C304.927 293.823 304.92 293.869 304.923 293.914V294.65C304.918 294.742 304.95 294.832 305.011 294.9C305.073 294.969 305.158 295.011 305.25 295.017C305.294 295.016 305.337 295.007 305.376 294.988C305.416 294.97 305.45 294.943 305.478 294.909C305.541 294.839 305.576 294.747 305.574 294.653V293.551Z" fill="black"/>
</svg>
