<svg width="415" height="410" viewBox="0 0 415 410" fill="none" xmlns="http://www.w3.org/2000/svg">
<path d="M330.157 172.911C350.632 210.774 373.122 202.969 385.611 235.163C408.07 293.067 363.904 391.952 306.727 408.049C276.95 416.432 269.541 395.074 217.693 385.739C128.744 369.723 94.3533 422.473 50.3473 395.987C-2.81587 364 -0.285749 258.307 0.148737 240.188C1.78574 171.856 30.3324 82.4095 78.1369 70.3233C101.977 64.2949 111.347 82.38 138.146 73.2907C174.409 60.9879 173.421 22.4065 207.092 6.44978C237.797 -8.09947 283.724 2.62116 305.507 32.0075C334.752 71.4601 299.609 116.419 330.157 172.911Z" fill="#EBE9FF"/>
<path d="M321.127 408.005C311.801 408.005 304.25 404.523 294.827 400.18C283.952 395.168 270.419 388.928 248.372 384.959C205.257 377.196 175.392 386.534 151.396 394.036C128.05 401.337 109.611 407.102 88.92 394.649C77.1955 387.594 67.4151 376.209 59.8292 360.811C53.6323 348.228 48.8573 332.859 45.6228 315.131C41.8506 294.443 40.2444 271.117 40.8522 245.8C41.2428 229.469 43.266 211.763 46.7222 194.594C50.2968 176.809 55.4207 159.533 61.5408 144.644C68.2271 128.363 76.0039 114.928 84.6585 104.678C94.1756 93.4156 104.555 86.2997 115.509 83.5168C126.262 80.8102 134.089 83.2092 141.671 85.5393C150.268 88.1795 159.155 90.9083 172.587 86.3538C190.493 80.2836 198.606 67.6536 207.197 54.278C214.846 42.3689 222.757 30.0539 238.155 22.7583C252.359 16.0262 270.713 14.732 288.51 19.2053C297.346 21.4198 305.597 24.9113 313.036 29.5642C320.846 34.4509 327.383 40.4029 332.463 47.2531C338.776 55.7691 342.39 64.9888 343.839 76.268C345.122 86.2726 344.539 96.5897 343.92 107.517C342.678 129.428 341.271 154.268 355.973 181.449C365.657 199.36 375.966 206.562 385.06 212.915C394.153 219.268 402.782 225.296 408.788 240.783C413.819 253.75 415.575 269.707 413.87 286.928C412.261 303.168 407.638 320.348 400.5 336.631C393.039 353.609 383.164 368.921 371.929 380.921C359.945 393.716 346.601 402.451 333.336 406.186C328.833 407.454 324.84 408.005 321.127 408.005ZM216.598 380.806C227.301 380.833 237.985 381.82 248.548 383.758C270.711 387.749 284.316 394.016 295.244 399.053C308.707 405.259 317.6 409.358 333.069 405.003C358.934 397.722 383.774 371.96 399.514 336.093C414.484 301.979 417.576 266.538 407.783 241.29C401.913 226.155 393.835 220.513 384.481 213.978C375.288 207.539 364.856 200.255 355.034 182.101C348.383 169.799 344.402 156.964 342.871 142.863C341.521 130.457 342.184 118.749 342.825 107.453C344.023 86.2923 345.155 66.3224 331.618 48.0602C311.678 21.159 268.201 9.87486 238.576 23.9099C223.459 31.0725 215.641 43.2449 208.075 55.0162C199.754 67.9685 191.152 81.3613 172.892 87.5521C159.158 92.2099 150.115 89.4319 141.368 86.745C133.573 84.3509 126.211 82.0896 115.737 84.7372C89.5542 91.3585 72.3459 121.249 62.5239 145.159C50.4504 174.572 42.7525 212.209 41.9472 245.83C41.3437 271.053 42.9413 294.285 46.6958 314.883C53.8912 354.352 68.2731 380.825 89.4401 393.564C109.74 405.78 127.993 400.074 151.102 392.848C168.78 387.324 189.644 380.806 216.598 380.806Z" fill="black"/>
<path d="M292.751 157.511C293.19 159.951 295.468 171.902 301.23 173.209C308.63 174.885 316.824 157.791 317.657 156.017C337.938 112.842 280.711 47.5632 298.81 24.3775C304.452 17.1533 315.305 16.7128 321.386 18.0489C335.377 21.1246 342.816 37.6644 346.219 45.4718C364.033 86.349 345.879 130.361 344.337 133.956C334.319 157.316 313.302 185.16 300.309 180.133C294.616 177.931 291.566 169.968 289.863 161.854L292.751 157.511Z" fill="black"/>
<path d="M218.419 37.4207C215.128 34.195 208.36 25.9423 198.354 25.364C196.282 25.2524 194.207 25.4644 192.188 25.9939C189.91 22.4475 186.943 19.5279 183.511 17.4558C182.567 21.5315 182.247 25.7572 182.565 29.953C180.151 31.8697 173.487 37.6816 171.374 47.792C170.801 50.5636 170.61 53.4173 170.808 56.2538C168.394 56.9748 167.42 58.2223 166.972 59.0342C164.464 63.5592 168.602 72.619 174.683 76.0244C176.688 77.1232 178.899 77.6682 181.13 77.6139C184.86 78.3521 190.219 80.0006 195.393 84.1516C203.982 91.0411 206.311 100.556 210.146 109.175C216.565 123.602 223.023 126.525 235.162 141.128C244.234 152.038 256.228 169.146 267.31 195.228C294.623 190.155 304.651 175.763 307.761 170.554C331.348 131.008 294.814 52.6147 259.618 45.356C246.507 42.6593 230.574 49.2929 218.419 37.4207Z" fill="white"/>
<path d="M266.996 195.917L266.818 195.499C257.955 174.629 247.17 156.477 234.763 141.554C230.747 136.724 227.361 133.188 224.372 130.056C218.344 123.752 213.989 119.195 209.657 109.456C208.873 107.697 208.141 105.868 207.434 104.104C204.665 97.1974 201.801 90.0569 195.075 84.6659C191.088 81.4671 186.383 79.3018 181.09 78.2438C178.789 78.2973 176.509 77.7302 174.444 76.5903C170.604 74.4398 167.246 69.9099 166.09 65.321C165.431 62.7005 165.574 60.4196 166.513 58.7242C167.248 57.4005 168.488 56.4236 170.244 55.8159C170.095 53.0808 170.3 50.336 170.852 47.6665C172.798 38.3164 178.56 32.448 181.999 29.67C181.718 25.519 182.052 21.3445 182.986 17.3156L183.162 16.5577L183.779 16.9293C187.174 18.9813 190.126 21.8459 192.424 25.3198C194.382 24.8425 196.387 24.6555 198.389 24.7637C207.416 25.2755 213.723 31.7664 217.48 35.6467C217.969 36.1511 218.393 36.5866 218.774 36.9606C226.701 44.704 236.378 44.4161 245.735 44.1356C250.424 43.9954 255.271 43.8502 259.717 44.768C268.714 46.6232 278.15 53.1142 287.031 63.5395C295.369 73.3252 302.786 86.2455 307.936 99.9164C312.746 112.684 315.454 125.678 315.768 137.496C316.117 150.678 313.574 161.92 308.215 170.911C305.411 175.61 301.61 179.835 296.921 183.46C289.133 189.485 279.201 193.654 267.397 195.846L266.996 195.917ZM181.18 77.0037L181.231 77.016C186.717 78.1036 191.58 80.3377 195.714 83.6595C202.679 89.2523 205.604 96.5479 208.441 103.602C209.143 105.357 209.872 107.17 210.636 108.91C214.877 118.449 219.174 122.935 225.118 129.16C228.12 132.297 231.522 135.855 235.564 140.725C247.964 155.641 258.752 173.753 267.628 194.562C292.315 189.862 303.078 177.316 307.304 170.229C317.256 153.544 317.115 127.438 306.927 100.399C301.827 86.8656 294.48 74.0707 286.238 64.3909C277.525 54.155 268.286 47.7871 259.52 45.9786C255.188 45.0854 250.61 45.2232 245.768 45.3684C236.198 45.6538 226.303 45.949 218.055 37.8883C217.662 37.5044 217.214 37.0443 216.738 36.5547C213.08 32.7875 206.958 26.4836 198.325 25.9964C196.306 25.882 194.282 26.0832 192.312 26.5943L191.957 26.6878L191.738 26.3557C189.648 23.1036 186.965 20.3877 183.866 18.3884C183.561 19.8399 183.334 21.3107 183.186 22.7928C182.955 25.1547 182.928 27.5362 183.107 29.9038L183.133 30.2556L182.877 30.4599C179.6 33.0459 173.823 38.7568 171.905 47.9298C171.345 50.6403 171.159 53.4309 171.352 56.2046L171.387 56.714L170.948 56.8468C169.261 57.3537 168.078 58.1977 167.437 59.3566C166.676 60.7296 166.559 62.7226 167.136 64.9691C168.216 69.2456 171.345 73.4679 174.924 75.4708C176.85 76.5333 178.976 77.0568 181.121 76.9963L181.18 77.0037Z" fill="black"/>
<path d="M139.996 197.79C141.844 206.174 143.691 214.559 145.537 222.946H121.531C121.004 213.631 120.478 204.315 119.953 195C126.397 197.438 133.215 198.39 139.996 197.797V197.79Z" fill="white"/>
<path d="M146.242 223.554H121.006L119.343 194.116L120.126 194.404C126.502 196.817 133.246 197.758 139.955 197.17L140.418 197.13L146.242 223.554ZM122.046 222.324H144.839L139.573 198.439C133.143 198.937 126.687 198.062 120.548 195.861L122.046 222.324Z" fill="black"/>
<path d="M175.695 56.9702C176.713 56.9702 177.538 56.0447 177.538 54.9031C177.538 53.7615 176.713 52.8361 175.695 52.8361C174.677 52.8361 173.851 53.7615 173.851 54.9031C173.851 56.0447 174.677 56.9702 175.695 56.9702Z" fill="black"/>
<path d="M168.883 68.9404C170.05 69.6739 171.394 69.9761 172.724 69.8042C173.578 69.6827 174.4 69.3625 175.138 68.8641" fill="white"/>
<path d="M171.986 70.3456C170.825 70.3336 169.685 69.9952 168.67 69.3613L169.096 68.5C170.182 69.1812 171.432 69.4626 172.669 69.3047C173.463 69.1938 174.227 68.897 174.912 68.4336L175.364 69.2776C174.573 69.8119 173.692 70.154 172.776 70.2816C172.514 70.322 172.251 70.3434 171.986 70.3456Z" fill="black"/>
<path d="M151.901 192.16C146.584 203.117 130.396 204.687 120.377 201.909C100.605 196.424 93.1137 170.709 95.5231 158.832C95.9159 156.903 98.8695 142.346 110.737 138.038C111.279 137.841 120.208 134.75 128.037 139.268C138.68 145.419 137.034 161.627 146.782 164.23C148.658 164.722 151.758 164.968 152.461 166.858C153.06 168.487 151.605 170.524 150.233 172.025C151.17 173.802 156.112 183.499 151.901 192.16Z" fill="white"/>
<path d="M129.683 203.725C126.505 203.738 123.337 203.325 120.247 202.494C100.188 196.931 92.4904 170.967 94.9854 158.697C95.7863 154.76 99.2776 141.546 110.565 137.452C110.954 137.312 120.188 134.049 128.285 138.722C133.683 141.834 136.044 147.526 138.127 152.55C140.321 157.823 142.202 162.378 146.904 163.623C147.26 163.719 147.668 163.805 148.1 163.896C149.965 164.289 152.287 164.777 152.963 166.615C153.512 168.091 152.842 169.909 150.913 172.124C152.522 175.291 156.325 184.326 152.386 192.445C149.246 198.912 142.838 201.633 138.017 202.78C135.275 203.415 132.483 203.731 129.683 203.725ZM118.36 137.437C115.835 137.43 113.322 137.829 110.899 138.623C100.171 142.516 96.8221 155.18 96.0584 158.972C94.7967 165.19 96.4271 174.638 100.118 182.485C104.713 192.256 111.968 198.944 120.526 201.318C129.885 203.912 146.178 202.706 151.436 191.872L151.918 192.165L151.436 191.872C155.289 183.934 151.135 174.924 149.772 172.353L149.553 171.937L149.862 171.597C151.618 169.673 152.342 168.118 151.967 167.099C151.528 165.869 149.52 165.458 147.916 165.131C147.477 165.037 147.049 164.949 146.667 164.848C141.447 163.453 139.358 158.416 137.146 153.084C135.039 148.005 132.863 142.75 127.8 139.831C124.609 137.984 121.246 137.437 118.36 137.437Z" fill="black"/>
<path d="M129.299 143.498C131.041 141.608 133.725 138.631 134.126 134.325C134.82 126.987 128.64 118.641 121.563 117.891C116.516 117.357 112.632 120.843 107.647 125.344C102.154 130.268 97.6716 136.459 94.5024 143.498C89.8942 145.651 87.5023 148.347 86.1923 150.375C78.4176 162.432 87.4409 183.592 101.461 193.752C106.633 197.497 111.774 199.229 115.184 200.093C116.222 197.974 117.126 195.172 116.029 192.743C114.274 188.865 109.099 189.736 106.723 185.238C105.389 182.711 105.169 178.925 107.098 177.008C107.348 176.762 108.259 175.854 109.497 175.849C113.227 175.829 115.226 184.013 116.519 183.71C117.736 183.423 118.274 175.591 115.187 167.001C112.479 159.462 109.494 158.354 110.359 155.345C111.864 150.053 121.528 151.923 129.299 143.498Z" fill="black"/>
<path d="M136.393 166.967C137.356 166.201 137.316 164.282 136.304 162.68C135.291 161.077 133.689 160.399 132.726 161.164C131.763 161.929 131.803 163.849 132.815 165.451C133.828 167.053 135.43 167.732 136.393 166.967Z" fill="black"/>
<path d="M151.099 181.927C151.615 183.157 150.44 185.264 148.904 185.837C145.755 187.006 140.98 181.818 141.302 180.396C141.495 179.54 143.567 179.86 146.857 180.369C149.411 180.763 150.702 180.979 151.099 181.927Z" fill="black"/>
<path d="M187.106 29.0443C187.791 28.8704 187.997 27.0027 187.566 24.8727C187.136 22.7427 186.232 21.157 185.547 21.3309C184.863 21.5049 184.657 23.3726 185.088 25.5026C185.518 27.6325 186.422 29.2182 187.106 29.0443Z" fill="black"/>
<path d="M183.898 65.3803C183.536 65.3801 183.175 65.3488 182.818 65.2868C181.187 64.9905 179.696 64.0779 178.591 62.7005L179.249 62.041C180.075 63.0829 181.159 63.8253 182.362 64.1733C183.566 64.5213 184.835 64.4592 186.007 63.9949L186.292 64.9251C185.522 65.2246 184.713 65.3784 183.898 65.3803Z" fill="black"/>
<path d="M183.265 61.8248C182.161 61.8206 181.071 61.5424 180.074 61.0103L180.452 60.1219C181.575 60.737 182.836 60.9657 184.075 60.7792C185.314 60.5927 186.476 59.9992 187.415 59.0736L187.99 59.8118C187.098 60.6816 186.031 61.2962 184.881 61.6033C184.352 61.7471 183.81 61.8214 183.265 61.8248Z" fill="black"/>
<path d="M177.251 39.1607C175.904 39.1831 174.59 38.6959 173.52 37.7778C172.71 37.0511 172.101 36.0805 171.764 34.9798L172.592 34.655C172.871 35.5793 173.38 36.3952 174.058 37.0075C175.326 38.142 176.834 38.2183 177.617 38.1641L177.672 39.1484C177.545 39.1558 177.404 39.1607 177.251 39.1607Z" fill="black"/>
<path d="M177.951 36.9613C176.57 36.4232 175.432 35.2994 174.782 33.8311C174.33 32.7502 174.14 31.5556 174.229 30.3663L175.106 30.4377C175.029 31.4552 175.191 32.4778 175.576 33.403C176.125 34.6392 177.085 35.584 178.249 36.0335L177.951 36.9613Z" fill="black"/>
<path d="M266.008 77.0062C263.911 78.4185 260.628 70.5767 253.217 69.8337C247.097 69.2234 245.592 74.1938 239.294 73.6327C231.75 72.9561 227.049 65.2004 226.503 64.2679C223.187 58.6209 221.335 49.5046 224.245 47.044C227.19 44.5515 231.724 51.6575 244.563 55.4837C254.332 58.3945 258.012 56.1604 262.247 60.5451C267.404 65.8869 268.13 75.5864 266.008 77.0062Z" fill="black"/>
<path d="M296.1 115.187C299.944 115.187 303.06 111.126 303.06 106.117C303.06 101.108 299.944 97.0474 296.1 97.0474C292.256 97.0474 289.139 101.108 289.139 106.117C289.139 111.126 292.256 115.187 296.1 115.187Z" fill="black"/>
<path d="M301.724 153.254C302.602 157.634 304.752 159.545 303.741 161.479C302.481 163.883 297.761 163.578 294.763 162.323C291.472 160.941 287.803 157.328 287.803 153.254C287.803 151.804 288.433 150.449 294.763 144.182C300.298 138.707 303.085 135.981 304.116 136.588C305.694 137.519 300.004 144.6 301.724 153.254Z" fill="black"/>
<path d="M216.154 77.55C217.076 81.3024 216.266 86.1619 214.471 86.7106C212.676 87.2594 211.717 83.0051 206.945 80.3821C202.584 77.9855 199.556 79.4397 199.045 77.8502C198.292 75.5201 203.624 68.7461 209.292 69.8559C212.953 70.5743 215.36 74.3119 216.154 77.55Z" fill="black"/>
<path d="M271.114 126.8C271.527 111.356 274.033 100.423 276.41 93.0417C277.656 89.1687 280.054 81.8363 277.406 79.1051C276.089 77.7518 273.934 77.9486 272.284 78.3448C272.723 74.9787 271.22 71.967 268.975 71.0886C267.02 70.3209 265.177 71.4331 264.806 71.6742C264.614 70.5185 264.15 69.4412 263.462 68.5542C262.774 67.6673 261.887 67.0029 260.893 66.6301C257.847 65.5007 255.407 67.7447 255.267 67.8727C254.679 67.1517 251.782 63.7192 248.789 64.4943C246.996 64.9569 245.936 66.7433 245.324 67.8727C239.941 78.0003 238.265 99.2029 235.381 99.4588C234.942 99.4982 233.345 99.1389 232.175 98.7846C231.736 98.6493 231.381 98.5385 231.164 98.445L230.411 110.27L237.042 118.599L271.114 126.8Z" fill="white"/>
<path d="M271.644 127.558L236.753 119.158L229.841 110.499L230.662 97.6281L231.32 97.8741C231.64 97.9898 231.978 98.1005 232.305 98.2014C233.609 98.5976 235.022 98.8854 235.325 98.8584C235.421 98.8584 235.95 98.664 236.806 95.8344C237.427 93.7798 238.039 90.9994 238.748 87.776C240.211 81.1325 242.039 72.8528 244.839 67.57C245.546 66.2363 246.711 64.4082 248.651 63.9062C251.429 63.1877 254.047 65.6286 255.318 67.068C256.211 66.3963 258.423 65.0848 261.049 66.0567C262.023 66.42 262.904 67.0401 263.619 67.8647C264.334 68.6894 264.863 69.6946 265.159 70.7958C266.081 70.3529 267.573 69.9026 269.146 70.5177C271.541 71.4552 273.039 74.3562 272.892 77.6016C275.069 77.2129 276.706 77.5697 277.768 78.6646C280.658 81.6419 278.251 89.1195 276.956 93.1376L276.917 93.2631C273.757 103.076 271.988 114.37 271.65 126.832L271.644 127.558ZM237.335 118.041L270.588 126.045C270.974 113.742 272.758 102.574 275.892 92.8275L275.934 92.7021C277.055 89.2204 279.388 81.9765 277.031 79.5529C276.129 78.6228 274.569 78.4185 272.394 78.9402L271.622 79.1272L271.738 78.2488C272.126 75.2961 270.86 72.4739 268.789 71.6643C267.141 71.0172 265.521 71.9104 265.058 72.2056L264.4 72.6289L264.26 71.7824C264.087 70.7342 263.667 69.7569 263.044 68.9524C262.42 68.1479 261.615 67.5456 260.713 67.2083C257.931 66.1773 255.708 68.2466 255.616 68.3352L255.212 68.719L254.857 68.2811C254.108 67.3657 251.471 64.4254 248.906 65.0824C247.369 65.4785 246.395 67.0508 245.79 68.1777C243.066 73.3031 241.267 81.4795 239.823 88.0492C238.068 96.0558 237.139 99.9115 235.419 100.062C234.829 100.116 233.08 99.6876 232.026 99.3677L231.656 99.252L230.969 110.044L237.335 118.041Z" fill="black"/>
<path d="M213.416 93.6321C208.453 105.309 204.178 117.337 200.616 129.64C198.586 136.657 196.886 143.419 195.459 149.895C195.001 150.141 191.29 152.336 190.581 156.952C189.967 161.022 192.144 164.088 192.567 164.644C196.767 170.261 207.636 170.849 211.063 164.617C213.387 160.389 211.309 154.806 210.901 153.758C212.011 150.845 213.743 146.455 216.045 141.209C221.849 127.976 225.862 120.612 228.746 114.544C232.395 106.86 236.918 95.261 239.909 79.0435" fill="white"/>
<path d="M202.371 169.69C198.292 169.69 194.287 167.899 192.152 165.04C191.494 164.166 189.418 160.997 190.046 156.851C190.704 152.452 193.914 150.141 194.992 149.469C196.479 142.752 198.198 136.015 200.098 129.438C203.669 117.112 207.951 105.059 212.918 93.3565L213.907 93.8855C208.962 105.537 204.698 117.537 201.143 129.81C199.222 136.453 197.491 143.247 195.997 150.023L195.935 150.296L195.716 150.424C195.058 150.793 191.766 152.845 191.132 157.036C190.583 160.663 192.42 163.46 192.997 164.23C195.112 167.06 199.297 168.736 203.409 168.398C206.688 168.133 209.31 166.629 210.605 164.275C212.676 160.507 210.978 155.446 210.407 153.985L210.313 153.739L210.405 153.492C212.007 149.295 213.74 145.063 215.56 140.917C219.632 131.635 222.801 125.267 225.362 120.152C226.459 117.937 227.409 116.048 228.269 114.234C233.253 103.743 236.992 91.8433 239.382 78.8983L240.455 79.1444C238.041 92.2148 234.271 104.215 229.239 114.822C228.362 116.648 227.42 118.555 226.319 120.762C223.773 125.865 220.613 132.219 216.545 141.47C214.77 145.518 213.076 149.644 211.498 153.746C212.189 155.611 213.771 160.85 211.529 164.927C210.047 167.633 207.113 169.338 203.48 169.634C203.114 169.671 202.744 169.69 202.371 169.69Z" fill="black"/>
<path d="M119.547 212.302C122.777 214.763 127.793 217.76 134.142 218.207C139.445 218.584 143.45 216.921 144.894 216.485L218.259 194.707C223.511 169.099 228.765 143.49 234.021 117.881C247.847 117.464 261.561 120.765 274.016 127.509C274.448 145.424 274.071 163.353 272.885 181.225C271.731 198.695 270.959 213.242 268.367 222.779C264.806 235.877 251.714 266.875 187.472 287.644C196.659 325.222 205.848 362.799 215.04 400.377H56.2961C61.3542 357.386 73.0787 303.466 100.096 247.948C106.35 235.089 112.902 223.225 119.547 212.302Z" fill="#8211FA"/>
<path d="M212.013 119.913C212.013 121.342 212.52 122.712 213.42 123.722C214.321 124.732 215.543 125.299 216.817 125.299C219.042 125.299 220.376 122.504 221.62 119.913C225.296 112.246 225.213 103.09 223.876 102.744C222.742 102.448 222.463 108.979 216.817 114.527C214.206 117.093 212.013 117.778 212.013 119.913Z" fill="black"/>
<path d="M209.766 153.721C209.69 153.753 213.543 159.873 211.461 164.444C209.626 168.485 204.27 168.952 203.181 169.048C199.299 169.388 194.252 167.855 191.838 163.477C190.975 161.998 190.512 160.27 190.504 158.502C190.561 153.062 195.411 149.826 195.477 149.89C195.543 149.954 191.397 153.534 191.656 158.076C191.691 158.716 191.77 159.833 192.47 160.397C193.967 161.602 196.677 158.952 197.737 160.045C198.47 160.8 197.485 162.38 198.542 164.248C198.83 164.791 199.245 165.234 199.743 165.529C200.745 166.095 202.016 165.913 202.892 165.308C204.555 164.164 204.364 161.807 205.261 161.733C206.036 161.671 206.238 163.421 207.833 163.984C208.031 164.053 208.884 164.356 209.65 163.913C210.03 163.694 210.587 163.175 210.905 161.661C211.678 157.936 209.845 153.689 209.766 153.721Z" fill="black"/>
<path d="M251.043 91.3905C251.006 91.3901 250.97 91.3859 250.935 91.3782C250.864 91.3631 250.795 91.3324 250.735 91.2877C250.674 91.243 250.622 91.1852 250.581 91.1178C250.54 91.0503 250.511 90.9744 250.497 90.8945C250.482 90.8146 250.482 90.7323 250.496 90.6523L253.957 71.396C253.986 71.2362 254.07 71.0958 254.192 71.0058C254.313 70.9158 254.461 70.8836 254.604 70.9162C254.747 70.9489 254.872 71.0437 254.952 71.1798C255.032 71.3159 255.061 71.4822 255.032 71.6421L251.571 90.8984C251.546 91.0357 251.48 91.1593 251.384 91.2488C251.288 91.3383 251.168 91.3883 251.043 91.3905Z" fill="black"/>
<path d="M259.138 98.4425C259.102 98.4431 259.065 98.439 259.03 98.4302C258.959 98.4154 258.891 98.3849 258.83 98.3405C258.769 98.296 258.717 98.2385 258.676 98.1712C258.635 98.1039 258.607 98.0282 258.592 97.9485C258.578 97.8688 258.577 97.7866 258.591 97.7068L262.912 73.6573C262.941 73.4971 263.026 73.3564 263.147 73.2662C263.269 73.176 263.418 73.1437 263.56 73.1763C263.703 73.2089 263.829 73.3038 263.909 73.4402C263.99 73.5766 264.019 73.7432 263.989 73.9034L259.675 97.9504C259.65 98.0893 259.583 98.2142 259.485 98.3039C259.387 98.3935 259.264 98.4425 259.138 98.4425Z" fill="black"/>
<path d="M268.095 99.5965C268.058 99.5959 268.022 99.5918 267.985 99.5842C267.914 99.5697 267.846 99.5394 267.785 99.4951C267.724 99.4507 267.671 99.3932 267.63 99.3258C267.59 99.2584 267.561 99.1826 267.547 99.1028C267.532 99.0229 267.532 98.9407 267.547 98.8608L271.007 79.6045C271.036 79.4446 271.121 79.3042 271.242 79.2142C271.364 79.1243 271.512 79.092 271.654 79.1247C271.797 79.1573 271.922 79.2521 272.002 79.3882C272.083 79.5244 272.111 79.6907 272.082 79.8505L268.642 99.1019C268.616 99.243 268.548 99.3697 268.448 99.4601C268.348 99.5504 268.223 99.5987 268.095 99.5965Z" fill="black"/>
<path d="M128.722 165.033C128.642 165.033 128.564 165.011 128.494 164.968C128.424 164.925 128.365 164.863 128.322 164.787C128.259 164.674 126.747 161.999 127.642 159.467C128.23 157.806 129.69 156.642 131.983 156.002C132.045 155.98 132.111 155.972 132.176 155.98C132.24 155.987 132.303 156.009 132.36 156.045C132.417 156.081 132.467 156.13 132.506 156.188C132.545 156.247 132.573 156.314 132.588 156.385C132.604 156.456 132.605 156.53 132.594 156.602C132.582 156.674 132.558 156.743 132.522 156.804C132.485 156.864 132.438 156.916 132.383 156.956C132.328 156.995 132.267 157.022 132.202 157.033C130.227 157.584 128.985 158.532 128.515 159.853C127.798 161.874 129.097 164.189 129.11 164.211C129.156 164.292 129.182 164.384 129.185 164.479C129.189 164.575 129.169 164.669 129.128 164.753C129.088 164.837 129.028 164.907 128.954 164.956C128.881 165.005 128.798 165.031 128.713 165.031L128.722 165.033Z" fill="black"/>
<path d="M115.475 187.702C115.378 188.168 112.58 188.571 110.32 187.193C109.881 186.92 108.169 185.879 107.829 183.923C107.449 181.74 108.907 179.21 110.243 179.208C111.354 179.208 112.536 180.962 112.657 182.522C112.752 183.814 112.051 184.193 112.315 185.155C112.789 186.917 115.583 187.225 115.475 187.702Z" fill="black"/>
<path d="M161.876 291.463C154.189 291.462 146.511 290.894 138.89 289.763C138.818 289.752 138.749 289.726 138.686 289.685C138.623 289.644 138.568 289.59 138.524 289.525C138.479 289.461 138.447 289.387 138.428 289.308C138.409 289.229 138.405 289.147 138.414 289.067C138.424 288.986 138.447 288.908 138.484 288.837C138.52 288.767 138.568 288.705 138.626 288.655C138.684 288.606 138.75 288.569 138.82 288.548C138.89 288.527 138.963 288.522 139.035 288.533C154.183 290.782 169.53 290.782 184.678 288.533C184.75 288.522 184.823 288.527 184.894 288.548C184.964 288.569 185.03 288.606 185.087 288.655C185.145 288.705 185.193 288.767 185.23 288.837C185.266 288.908 185.29 288.986 185.299 289.067C185.309 289.147 185.304 289.229 185.285 289.308C185.266 289.387 185.234 289.461 185.19 289.525C185.146 289.59 185.09 289.644 185.027 289.685C184.965 289.726 184.895 289.752 184.823 289.763C177.608 290.834 170.34 291.4 163.061 291.458L161.876 291.463Z" fill="#9D9BEA"/>
<path d="M242.155 217.558C242.05 217.558 241.946 217.523 241.857 217.459C241.768 217.394 241.698 217.302 241.655 217.194C235.511 201.938 222.015 197.052 221.879 197.017C221.745 196.965 221.634 196.855 221.57 196.713C221.506 196.57 221.494 196.405 221.536 196.253C221.579 196.101 221.672 195.973 221.797 195.896C221.923 195.82 222.069 195.801 222.206 195.843C222.351 195.893 225.777 197.108 230.031 200.29C233.957 203.223 239.333 208.454 242.656 216.702C242.714 216.85 242.719 217.019 242.667 217.171C242.616 217.323 242.513 217.446 242.381 217.514C242.31 217.546 242.233 217.561 242.155 217.558Z" fill="#9D9BEA"/>
<path d="M270.928 134.576C270.804 134.576 270.682 134.542 270.573 134.475C259.582 127.696 247.026 124.786 234.539 126.124C234.347 126.138 234.158 126.067 234.012 125.927C233.866 125.787 233.774 125.588 233.757 125.374C233.739 125.159 233.797 124.945 233.918 124.778C234.039 124.611 234.214 124.503 234.405 124.478C247.182 123.111 260.029 126.09 271.275 133.026C271.418 133.114 271.53 133.254 271.595 133.422C271.66 133.59 271.673 133.778 271.632 133.955C271.591 134.132 271.499 134.289 271.37 134.402C271.241 134.514 271.083 134.575 270.919 134.576H270.928Z" fill="#9D9BEA"/>
<path d="M232.665 44.3398C228.304 53.8022 223.406 62.9414 218.002 71.7012C213.383 79.179 208.401 86.3673 203.08 93.2335C199.628 91.35 196.899 88.1318 195.396 84.1713C200.548 78.0723 205.314 71.577 209.659 64.7329C214.5 57.1099 218.803 49.0757 222.531 40.7031C226.191 40.4939 229.793 41.7926 232.658 44.3546L232.665 44.3398Z" fill="#8211FA"/>
<path d="M203.227 93.9839L202.854 93.7796C199.278 91.8318 196.452 88.4982 194.897 84.3951L194.759 84.0285L195.003 83.7406C200.138 77.6604 204.891 71.1866 209.224 64.3662C214.047 56.7671 218.336 48.7603 222.055 40.4176L222.195 40.0978L222.514 40.083C226.304 39.8666 230.033 41.2117 233 43.8649L233.349 44.1749L233.145 44.6178C228.771 54.1026 223.86 63.2639 218.443 72.0456C213.815 79.5407 208.826 86.7469 203.497 93.632L203.227 93.9839ZM196.036 84.2819C197.458 87.8083 199.897 90.6959 202.959 92.4805C208.159 85.7364 213.031 78.6842 217.556 71.3542C222.86 62.7539 227.676 53.788 231.976 44.5095C229.355 42.313 226.148 41.1752 222.878 41.2813C215.843 57.0025 206.801 71.4886 196.036 84.2819Z" fill="black"/>
<path d="M202.034 102.69C205.806 102.182 208.402 97.4536 207.832 92.1296C207.261 86.8055 203.741 82.9014 199.969 83.4096C196.196 83.9177 193.601 88.6456 194.171 93.9696C194.742 99.2937 198.262 103.198 202.034 102.69Z" fill="#8211FA"/>
<path d="M201.388 103.364C200.201 103.355 199.039 102.985 198.024 102.293C195.942 100.901 194.399 98.3564 193.791 95.288C192.694 89.7469 195.014 84.2156 198.97 82.9557C199.812 82.6968 200.692 82.6355 201.555 82.7756C202.419 82.9158 203.247 83.2544 203.989 83.7702C206.071 85.1604 207.614 87.7071 208.222 90.7729C209.319 96.3166 206.997 101.845 203.041 103.108C202.503 103.278 201.947 103.364 201.388 103.364ZM194.926 94.9977C195.464 97.7043 196.811 99.9557 198.619 101.166C199.224 101.593 199.901 101.875 200.608 101.991C201.315 102.108 202.036 102.059 202.725 101.845C206.097 100.773 208.055 95.9401 207.085 91.051C206.547 88.3444 205.202 86.0905 203.392 84.8824C202.788 84.4543 202.111 84.1725 201.404 84.0551C200.698 83.9377 199.977 83.9874 199.288 84.2008C195.913 85.2761 193.956 90.1184 194.926 94.9977Z" fill="black"/>
<path d="M201.577 90.4484L201.276 88.935C201.18 88.4576 201.377 87.9826 201.715 87.8744L202.78 87.5348C203.116 87.429 203.467 87.7292 203.561 88.2066L203.862 89.7224C203.956 90.1998 203.761 90.6747 203.423 90.7806L202.356 91.1201C202.02 91.2284 201.671 90.9257 201.577 90.4484ZM201.849 88.5658C201.813 88.5823 201.784 88.6137 201.768 88.6534C201.751 88.6932 201.749 88.7384 201.761 88.7799L202.062 90.2933C202.082 90.3918 202.152 90.4533 202.22 90.4311L203.287 90.0915C203.323 90.0746 203.351 90.0432 203.368 90.0036C203.384 89.964 203.386 89.919 203.374 89.8774L203.074 88.3542C203.072 88.3334 203.066 88.3133 203.057 88.295C203.048 88.2767 203.036 88.2608 203.021 88.2481C203.006 88.2354 202.989 88.2262 202.971 88.2212C202.953 88.2162 202.934 88.2154 202.916 88.2189L201.849 88.5658Z" fill="black"/>
<path d="M202.777 86.1545C202.707 86.1883 202.651 86.25 202.619 86.3277C202.587 86.4053 202.582 86.4935 202.604 86.5753C202.608 86.6163 202.619 86.6561 202.637 86.6921C202.655 86.7282 202.679 86.7597 202.708 86.7848C202.737 86.8099 202.771 86.8281 202.807 86.8382C202.842 86.8483 202.879 86.8501 202.916 86.8435L203.42 86.6836C203.475 86.6739 203.531 86.6768 203.585 86.692C203.638 86.7073 203.689 86.7346 203.732 86.7724C203.776 86.8101 203.813 86.8575 203.84 86.9116C203.867 86.9657 203.884 87.0254 203.89 87.0871L204.026 87.7762C204.03 87.8171 204.041 87.8566 204.06 87.8925C204.078 87.9284 204.102 87.9597 204.131 87.9848C204.16 88.0099 204.193 88.0281 204.229 88.0383C204.264 88.0485 204.301 88.0506 204.338 88.0444C204.408 88.0101 204.465 87.948 204.496 87.8699C204.528 87.7918 204.534 87.7032 204.511 87.6211L204.307 86.5876C204.21 86.1102 203.868 85.81 203.526 85.9158L202.777 86.1545Z" fill="black"/>
<path d="M199.234 99.919C199.304 99.8851 199.36 99.8235 199.392 99.7458C199.424 99.6681 199.43 99.5799 199.407 99.4982C199.403 99.4571 199.392 99.4174 199.374 99.3813C199.356 99.3453 199.332 99.3138 199.303 99.2886C199.274 99.2635 199.24 99.2454 199.205 99.2353C199.169 99.2252 199.132 99.2234 199.095 99.2299L198.593 99.3899C198.538 99.3996 198.482 99.3967 198.429 99.3814C198.375 99.3662 198.325 99.3388 198.281 99.3011C198.237 99.2633 198.2 99.216 198.173 99.1619C198.146 99.1077 198.129 99.048 198.123 98.9863L197.985 98.2973C197.982 98.2564 197.971 98.2168 197.953 98.1809C197.935 98.145 197.911 98.1136 197.882 98.0886C197.853 98.0636 197.82 98.0457 197.784 98.0359C197.749 98.026 197.712 98.0246 197.676 98.0315C197.605 98.0649 197.548 98.1264 197.516 98.2041C197.483 98.2818 197.478 98.3703 197.5 98.4523L197.706 99.4859C197.801 99.9633 198.145 100.263 198.488 100.158L199.234 99.919Z" fill="black"/>
<path d="M195.909 90.3746C195.912 90.4155 195.923 90.4551 195.941 90.491C195.959 90.5269 195.983 90.5584 196.012 90.5833C196.041 90.6083 196.074 90.6262 196.11 90.6361C196.145 90.6459 196.182 90.6473 196.218 90.6404C196.289 90.607 196.346 90.5455 196.378 90.4678C196.411 90.3901 196.416 90.3017 196.394 90.2196L196.251 89.5035C196.217 89.3796 196.224 89.2456 196.273 89.1277C196.322 89.0098 196.408 88.9165 196.515 88.8662L196.997 88.7111C197.068 88.6777 197.125 88.6162 197.157 88.5385C197.19 88.4608 197.195 88.3724 197.173 88.2903C197.134 88.0984 196.995 87.9778 196.861 88.0221L196.135 88.2534C195.799 88.3592 195.602 88.8342 195.696 89.3116L195.909 90.3746Z" fill="black"/>
<path d="M206.102 95.6941C206.099 95.6529 206.088 95.6129 206.07 95.5767C206.052 95.5405 206.028 95.5088 205.998 95.4836C205.969 95.4585 205.936 95.4403 205.9 95.4304C205.864 95.4204 205.827 95.4189 205.79 95.4258C205.72 95.4592 205.663 95.5208 205.631 95.5987C205.599 95.6765 205.594 95.7649 205.617 95.8466L205.76 96.5652C205.794 96.6888 205.786 96.8222 205.737 96.9395C205.688 97.0569 205.603 97.1497 205.496 97.2001L205.011 97.3551C204.941 97.389 204.884 97.451 204.852 97.5293C204.82 97.6075 204.815 97.6963 204.838 97.7784C204.842 97.8193 204.853 97.859 204.871 97.8949C204.889 97.9309 204.913 97.9623 204.942 97.9872C204.971 98.0121 205.005 98.03 205.041 98.0398C205.076 98.0496 205.113 98.0511 205.15 98.0441L205.876 97.8128C206.212 97.707 206.407 97.2321 206.315 96.7547L206.102 95.6941Z" fill="black"/>
<path d="M202.606 89.7294C202.751 89.7098 202.852 89.5265 202.829 89.3201C202.807 89.1136 202.671 88.9621 202.526 88.9818C202.38 89.0014 202.28 89.1846 202.302 89.3911C202.324 89.5975 202.46 89.749 202.606 89.7294Z" fill="black"/>
<path d="M202.832 96.4498L202.532 94.9364C202.437 94.459 202.633 93.984 202.971 93.8758L204.037 93.5386C204.373 93.4304 204.722 93.733 204.818 94.2104L205.119 95.7238C205.213 96.2012 205.018 96.6761 204.68 96.782L203.614 97.1215C203.278 97.2298 202.927 96.9271 202.832 96.4498ZM203.107 94.5672C203.07 94.5838 203.041 94.6149 203.024 94.6546C203.008 94.6943 203.005 94.7395 203.017 94.7813L203.317 96.2972C203.319 96.3181 203.325 96.3383 203.335 96.3566C203.344 96.3748 203.357 96.3908 203.372 96.4034C203.387 96.4161 203.404 96.4252 203.422 96.4302C203.44 96.4352 203.459 96.436 203.478 96.4325L204.542 96.0929C204.578 96.0755 204.606 96.0442 204.623 96.0048C204.639 95.9655 204.643 95.9207 204.632 95.8788L204.329 94.363C204.327 94.3422 204.322 94.322 204.312 94.3038C204.303 94.2855 204.291 94.2696 204.276 94.2569C204.261 94.2442 204.244 94.235 204.226 94.23C204.208 94.225 204.189 94.2242 204.171 94.2277L203.107 94.5672Z" fill="black"/>
<path d="M203.861 95.7316C204.006 95.712 204.106 95.5287 204.084 95.3223C204.062 95.1158 203.926 94.9643 203.781 94.984C203.635 95.0036 203.535 95.1868 203.557 95.3933C203.579 95.5997 203.715 95.7512 203.861 95.7316Z" fill="black"/>
<path d="M197.386 91.782L197.085 90.2662C196.991 89.7912 197.186 89.3138 197.524 89.208L198.591 88.8684C198.926 88.7626 199.275 89.0628 199.37 89.5402L199.67 91.0561C199.767 91.5335 199.569 92.0084 199.231 92.1142L198.167 92.4538C197.831 92.5596 197.48 92.2594 197.386 91.782ZM197.66 89.8971C197.624 89.9141 197.594 89.9457 197.578 89.9858C197.561 90.0258 197.558 90.0714 197.57 90.1136L197.871 91.627C197.873 91.6479 197.878 91.6681 197.887 91.6865C197.896 91.7048 197.909 91.721 197.923 91.7338C197.938 91.7467 197.955 91.7561 197.973 91.7614C197.991 91.7668 198.01 91.7679 198.029 91.7648L199.095 91.4252C199.131 91.4082 199.16 91.3769 199.176 91.3372C199.193 91.2976 199.195 91.2526 199.183 91.2111L198.883 89.6953C198.881 89.6745 198.875 89.6543 198.866 89.636C198.857 89.6178 198.845 89.6018 198.83 89.5891C198.815 89.5764 198.798 89.5673 198.78 89.5623C198.762 89.5572 198.743 89.5565 198.725 89.5599L197.66 89.8971Z" fill="black"/>
<path d="M198.415 91.0629C198.561 91.0433 198.661 90.86 198.639 90.6535C198.617 90.4471 198.481 90.2956 198.335 90.3153C198.19 90.3349 198.089 90.5181 198.112 90.7246C198.134 90.931 198.27 91.0825 198.415 91.0629Z" fill="black"/>
<path d="M198.051 93.9306C198.197 93.9109 198.297 93.7277 198.275 93.5212C198.253 93.3148 198.117 93.1633 197.971 93.1829C197.826 93.2025 197.725 93.3858 197.748 93.5923C197.77 93.7987 197.906 93.9502 198.051 93.9306Z" fill="black"/>
<path d="M200.322 96.8442C200.468 96.8246 200.568 96.6413 200.546 96.4349C200.524 96.2284 200.388 96.077 200.242 96.0966C200.096 96.1162 199.996 96.2994 200.018 96.5059C200.041 96.7123 200.177 96.8638 200.322 96.8442Z" fill="black"/>
<path d="M199.692 88.8882L200.098 90.938C200.102 90.9814 200.114 91.0234 200.134 91.0615C200.153 91.0995 200.179 91.1327 200.21 91.1592C200.241 91.1857 200.276 91.2048 200.314 91.2154C200.352 91.226 200.391 91.228 200.429 91.221C200.504 91.1855 200.565 91.1198 200.599 91.037C200.633 90.9542 200.638 90.8601 200.614 90.7732L200.206 88.7258C200.202 88.6822 200.19 88.64 200.171 88.6017C200.153 88.5634 200.127 88.5299 200.096 88.5031C200.065 88.4764 200.03 88.457 199.992 88.4462C199.954 88.4354 199.915 88.4334 199.876 88.4403C199.841 88.4531 199.808 88.4745 199.78 88.503C199.753 88.5315 199.731 88.5663 199.716 88.6052C199.681 88.6942 199.673 88.7934 199.692 88.8882Z" fill="black"/>
<path d="M202.913 92.4091L201.472 92.8668C201.397 92.9024 201.336 92.9679 201.302 93.0506C201.267 93.1333 201.261 93.2274 201.285 93.3147C201.289 93.3581 201.301 93.4001 201.321 93.4381C201.34 93.4761 201.366 93.5094 201.397 93.5359C201.428 93.5623 201.463 93.5814 201.501 93.5921C201.539 93.6027 201.578 93.6046 201.616 93.5977L203.058 93.1424C203.133 93.1064 203.193 93.0408 203.227 92.9581C203.261 92.8754 203.267 92.7816 203.243 92.6946C203.226 92.6025 203.181 92.5198 203.115 92.4608C203.088 92.4342 203.055 92.4156 203.02 92.4066C202.985 92.3975 202.948 92.3984 202.913 92.4091Z" fill="black"/>
<path d="M200.546 90.4063L200.855 91.9714C200.859 92.0147 200.871 92.0566 200.89 92.0947C200.909 92.1327 200.934 92.1659 200.965 92.1924C200.996 92.2189 201.031 92.2381 201.069 92.2487C201.107 92.2594 201.146 92.2613 201.184 92.2544C201.259 92.2188 201.32 92.1533 201.354 92.0706C201.389 91.9879 201.395 91.8938 201.371 91.8065L201.132 90.6081C201.115 90.5156 201.07 90.4327 201.004 90.3743C200.977 90.3482 200.944 90.33 200.909 90.3214C200.874 90.3128 200.837 90.3141 200.802 90.3251L200.546 90.4063Z" fill="black"/>
<path d="M200.028 90.5687L200.1 90.9354C200.105 90.9788 200.117 91.0208 200.136 91.0588C200.155 91.0969 200.181 91.1301 200.212 91.1566C200.243 91.183 200.278 91.2022 200.316 91.2128C200.354 91.2234 200.393 91.2253 200.432 91.2184L200.95 91.0535C201.025 91.0179 201.085 90.9524 201.119 90.8695C201.153 90.7867 201.158 90.6927 201.134 90.6057C201.117 90.5136 201.072 90.4309 201.007 90.3719C200.979 90.3457 200.946 90.3276 200.911 90.319C200.876 90.3104 200.84 90.3117 200.805 90.3227L200.028 90.5687Z" fill="black"/>
<path d="M199.776 89.1687L199.848 89.5354C199.851 89.5798 199.861 89.6231 199.88 89.6625C199.898 89.7019 199.923 89.7367 199.954 89.7645C199.985 89.7923 200.021 89.8125 200.06 89.8239C200.098 89.8353 200.138 89.8376 200.177 89.8307L200.697 89.6658C200.772 89.6298 200.832 89.5641 200.866 89.4815C200.9 89.3988 200.906 89.3049 200.882 89.2179C200.867 89.1214 200.822 89.034 200.754 88.9718C200.727 88.9453 200.693 88.9269 200.658 88.9183C200.622 88.9097 200.585 88.9112 200.55 88.9226L199.776 89.1687Z" fill="black"/>
<path d="M202.404 93.3197L202.663 93.241C202.738 93.2059 202.799 93.1409 202.833 93.0586C202.867 92.9763 202.873 92.8826 202.85 92.7956L202.707 92.0574C202.703 92.014 202.691 91.9719 202.672 91.9338C202.653 91.8957 202.628 91.8623 202.597 91.8356C202.566 91.8089 202.531 91.7895 202.493 91.7786C202.456 91.7676 202.416 91.7654 202.378 91.7719C202.342 91.7837 202.308 91.8044 202.28 91.8325C202.252 91.8606 202.23 91.8954 202.216 91.9343C202.181 92.0233 202.172 92.1225 202.191 92.2173L202.404 93.3197Z" fill="black"/>
<path d="M203.249 91.9171C203.263 92.0133 203.308 92.1005 203.374 92.1632C203.402 92.1898 203.434 92.2084 203.469 92.2174C203.505 92.2264 203.541 92.2256 203.576 92.2149L203.84 92.1337L204.355 91.9762V91.9221L204.294 91.6095C204.291 91.5891 204.286 91.5692 204.278 91.5505C204.262 91.4751 204.221 91.4094 204.163 91.3669C204.105 91.3244 204.035 91.3082 203.967 91.3216L203.923 91.3339L203.447 91.4816C203.372 91.5143 203.31 91.5767 203.274 91.6571C203.237 91.7374 203.229 91.83 203.249 91.9171Z" fill="black"/>
<path d="M203.756 91.7596L203.831 92.1238L203.905 92.4954C203.91 92.5387 203.922 92.5806 203.941 92.6185C203.96 92.6565 203.986 92.6896 204.017 92.7158C204.048 92.7421 204.084 92.761 204.121 92.7713C204.159 92.7816 204.198 92.7832 204.237 92.7759C204.273 92.763 204.306 92.7413 204.334 92.7124C204.361 92.6834 204.383 92.648 204.397 92.6086C204.432 92.5205 204.44 92.4217 204.419 92.328L204.335 91.9122L204.259 91.5406C204.242 91.4652 204.201 91.3995 204.143 91.357C204.085 91.3145 204.015 91.2983 203.947 91.3117L203.903 91.324C203.84 91.3691 203.792 91.4359 203.765 91.5144C203.739 91.5929 203.735 91.6789 203.756 91.7596Z" fill="black"/>
<path d="M201.422 95.1281C201.408 95.0344 201.368 94.948 201.307 94.882C201.284 94.8558 201.255 94.8365 201.223 94.8257C201.191 94.815 201.158 94.8132 201.125 94.8205L200.893 94.8894L200.434 95.0198L200.445 95.074L200.502 95.3865C200.506 95.4074 200.511 95.428 200.517 95.448C200.568 95.6154 200.686 95.7212 200.8 95.6941L200.838 95.6818L201.261 95.5612C201.33 95.5229 201.384 95.4579 201.414 95.3783C201.443 95.2987 201.446 95.2098 201.422 95.1281Z" fill="black"/>
<path d="M200.983 95.0494L200.91 94.6827L200.838 94.3112C200.834 94.2678 200.822 94.2257 200.803 94.1876C200.784 94.1495 200.758 94.1161 200.728 94.0894C200.697 94.0627 200.662 94.0433 200.624 94.0324C200.586 94.0214 200.547 94.0191 200.509 94.0257C200.473 94.0379 200.44 94.0589 200.412 94.0869C200.385 94.115 200.363 94.1495 200.348 94.1881C200.313 94.2769 200.304 94.376 200.322 94.4711L200.403 94.8845L200.476 95.2586C200.489 95.3366 200.53 95.4056 200.588 95.4514C200.646 95.4972 200.717 95.5163 200.787 95.5046H200.831C200.9 95.4603 200.952 95.3906 200.98 95.3076C201.008 95.2245 201.008 95.1332 200.983 95.0494Z" fill="black"/>
<path d="M202.308 96.4028L202.236 96.0361L202.165 95.6646C202.161 95.6211 202.15 95.579 202.131 95.5407C202.112 95.5025 202.086 95.4689 202.055 95.4421C202.025 95.4152 201.989 95.3955 201.952 95.3843C201.914 95.373 201.875 95.3704 201.836 95.3766C201.8 95.389 201.767 95.4102 201.739 95.4387C201.71 95.4672 201.688 95.5023 201.674 95.5415C201.639 95.6305 201.631 95.7297 201.65 95.8245L201.729 96.2379L201.803 96.612C201.817 96.6903 201.857 96.7597 201.915 96.8056C201.973 96.8515 202.045 96.8703 202.115 96.858H202.157C202.225 96.8137 202.278 96.744 202.305 96.6609C202.333 96.5779 202.334 96.4866 202.308 96.4028Z" fill="black"/>
<path d="M201.604 97.0081L201.86 96.9293L202.121 96.8481C202.196 96.8125 202.257 96.7471 202.291 96.6644C202.326 96.5817 202.332 96.4876 202.308 96.4003C202.294 96.3039 202.25 96.2164 202.183 96.1542C202.155 96.1272 202.122 96.1083 202.087 96.0993C202.051 96.0903 202.014 96.0914 201.979 96.1025L201.687 96.1935L201.424 96.2748C201.358 96.3197 201.308 96.3879 201.281 96.4686C201.254 96.5494 201.251 96.6379 201.274 96.7202V96.7817C201.292 96.8604 201.336 96.9284 201.397 96.9708C201.459 97.0132 201.533 97.0266 201.604 97.0081Z" fill="black"/>
<path d="M201.274 96.7201L201.349 97.0868L201.424 97.4559C201.428 97.4992 201.439 97.5412 201.458 97.5792C201.477 97.6172 201.503 97.6505 201.534 97.677C201.565 97.7035 201.6 97.7226 201.638 97.7333C201.675 97.7439 201.714 97.7458 201.753 97.7389C201.789 97.7266 201.822 97.7053 201.85 97.6768C201.877 97.6483 201.899 97.6132 201.913 97.574C201.948 97.485 201.956 97.3859 201.937 97.2911L201.854 96.8776L201.779 96.5036C201.762 96.428 201.721 96.3623 201.662 96.3198C201.604 96.2773 201.534 96.2612 201.465 96.2747H201.424C201.358 96.3197 201.308 96.3879 201.281 96.4686C201.254 96.5493 201.251 96.6379 201.274 96.7201Z" fill="black"/>
<path d="M201.235 97.9086L201.492 97.8274L201.753 97.7413C201.828 97.7057 201.888 97.6401 201.922 97.5573C201.956 97.4745 201.962 97.3804 201.937 97.2934C201.923 97.1969 201.877 97.1095 201.81 97.0474C201.782 97.0208 201.749 97.0024 201.713 96.9938C201.678 96.9852 201.641 96.9867 201.606 96.9981L201.314 97.0916L201.053 97.1778C200.991 97.2215 200.943 97.2865 200.916 97.3632C200.89 97.44 200.886 97.5242 200.906 97.6035V97.665C200.912 97.7056 200.926 97.7442 200.947 97.7786C200.967 97.8129 200.994 97.8424 201.024 97.8651C201.055 97.8878 201.089 97.9034 201.126 97.9109C201.162 97.9183 201.199 97.9176 201.235 97.9086Z" fill="black"/>
<path d="M199.738 98.3589L199.995 98.2777L200.256 98.1915C200.331 98.156 200.391 98.0904 200.425 98.0076C200.46 97.9247 200.465 97.8306 200.44 97.7437C200.423 97.6516 200.378 97.5689 200.313 97.5099C200.286 97.4837 200.253 97.4656 200.218 97.457C200.183 97.4484 200.146 97.4497 200.111 97.4607L199.819 97.5542L199.556 97.6403C199.494 97.6843 199.446 97.7494 199.42 97.826C199.393 97.9026 199.39 97.9868 199.409 98.066L199.422 98.1275C199.438 98.2044 199.48 98.2715 199.539 98.3146C199.598 98.3577 199.669 98.3736 199.738 98.3589Z" fill="black"/>
<path d="M199.014 98.5852L199.271 98.504L199.532 98.4203C199.607 98.3843 199.668 98.3183 199.702 98.235C199.736 98.1518 199.741 98.0574 199.716 97.97C199.703 97.8731 199.657 97.7853 199.589 97.7239C199.562 97.6978 199.529 97.6796 199.494 97.671C199.458 97.6624 199.422 97.6637 199.387 97.6747L199.095 97.7707L198.832 97.8544C198.77 97.8986 198.723 97.9637 198.696 98.0403C198.67 98.1168 198.666 98.2008 198.685 98.2801L198.698 98.3416C198.711 98.4208 198.752 98.4908 198.811 98.5364C198.871 98.5821 198.943 98.5996 199.014 98.5852Z" fill="black"/>
<path d="M199.334 98.4844L199.591 98.4007L199.852 98.3171C199.927 98.2815 199.988 98.2159 200.022 98.1331C200.056 98.0503 200.061 97.9562 200.037 97.8692C200.02 97.7771 199.975 97.6945 199.909 97.6354C199.882 97.6088 199.849 97.5904 199.813 97.5819C199.777 97.5733 199.74 97.5748 199.705 97.5862L199.413 97.6797L199.152 97.7658C199.09 97.8095 199.042 97.8746 199.016 97.9513C198.989 98.028 198.985 98.1123 199.005 98.1916L199.016 98.2531C199.032 98.3302 199.075 98.3972 199.134 98.4403C199.193 98.4834 199.265 98.4992 199.334 98.4844Z" fill="black"/>
<path d="M198.997 97.4189L199.069 97.7831L199.141 98.1547C199.146 98.1982 199.158 98.2403 199.177 98.2784C199.196 98.3165 199.222 98.3499 199.253 98.3766C199.284 98.4032 199.319 98.4226 199.357 98.4335C199.395 98.4445 199.434 98.4467 199.473 98.4401C199.509 98.4273 199.541 98.406 199.569 98.3775C199.597 98.349 199.619 98.3141 199.633 98.2753C199.668 98.1863 199.676 98.0871 199.657 97.9923L199.576 97.5789L199.501 97.2048C199.485 97.1292 199.444 97.0634 199.386 97.0205C199.328 96.9775 199.258 96.9608 199.19 96.9735L199.146 96.9858C199.082 97.0295 199.033 97.0957 199.006 97.174C198.979 97.2523 198.975 97.3384 198.997 97.4189Z" fill="black"/>
<path d="M199.08 93.2384L199.119 93.4328C199.162 93.4779 199.215 93.5096 199.272 93.5247C199.329 93.5398 199.388 93.5378 199.444 93.5189L199.664 93.4476L199.778 93.4107L200.12 93.3024C200.209 93.2756 200.286 93.2121 200.336 93.1245C200.385 93.0369 200.403 92.9317 200.386 92.8299C200.376 92.7819 200.358 92.7367 200.332 92.6972C200.306 92.6578 200.273 92.625 200.234 92.6011C200.195 92.5771 200.151 92.5622 200.106 92.5571C200.062 92.552 200.016 92.5569 199.973 92.5715L199.591 92.6921L199.299 92.7832L199.247 92.8004C199.205 92.8207 199.167 92.849 199.135 92.884C199.104 92.9353 199.083 92.9935 199.073 93.0546C199.064 93.1157 199.066 93.1784 199.08 93.2384Z" fill="black"/>
<path d="M199.214 93.9717L199.253 94.1661L199.288 94.3384L199.363 94.7075C199.367 94.751 199.378 94.7931 199.397 94.8313C199.416 94.8695 199.442 94.9029 199.473 94.9294C199.504 94.956 199.539 94.9751 199.577 94.9856C199.615 94.9961 199.654 94.9978 199.692 94.9905C199.728 94.9781 199.761 94.9569 199.789 94.9284C199.817 94.8999 199.838 94.8647 199.852 94.8256C199.887 94.7366 199.896 94.6374 199.877 94.5426L199.804 94.1809V94.1292L199.73 93.7552C199.715 93.6849 199.679 93.6223 199.628 93.5777C199.578 93.533 199.515 93.5088 199.451 93.5091H199.416L199.374 93.5214C199.339 93.5409 199.309 93.5696 199.286 93.6051C199.25 93.6558 199.224 93.7153 199.212 93.7789C199.199 93.8425 199.2 93.9085 199.214 93.9717Z" fill="black"/>
<path d="M199.08 93.2385L199.119 93.4329L199.152 93.6027L199.227 93.9742C199.231 94.0177 199.243 94.0597 199.263 94.0977C199.282 94.1357 199.308 94.1689 199.339 94.1954C199.37 94.2219 199.405 94.241 199.443 94.2516C199.481 94.2623 199.52 94.2642 199.558 94.2572C199.594 94.2444 199.627 94.223 199.655 94.1946C199.682 94.1661 199.704 94.1312 199.719 94.0924C199.753 94.0033 199.762 93.9042 199.743 93.8094L199.668 93.4476V93.3935L199.593 93.0219C199.578 92.9514 199.542 92.8888 199.491 92.8442C199.44 92.7995 199.377 92.7754 199.313 92.7758H199.28L199.236 92.7881C199.202 92.8081 199.172 92.8357 199.148 92.8693C199.113 92.9212 199.088 92.9813 199.077 93.0452C199.065 93.1091 199.066 93.1751 199.08 93.2385Z" fill="black"/>
<path d="M199.378 93.5066L199.242 93.5484L199.122 93.5878L198.86 93.6715C198.786 93.7075 198.726 93.7731 198.692 93.8558C198.658 93.9385 198.652 94.0323 198.676 94.1193C198.69 94.2162 198.735 94.3039 198.803 94.3654C198.831 94.392 198.864 94.4104 198.9 94.419C198.936 94.4276 198.973 94.4261 199.008 94.4146L199.262 94.3334H199.299L199.561 94.2498C199.617 94.211 199.662 94.1542 199.689 94.0867C199.717 94.0191 199.725 93.9439 199.714 93.8708V93.824L199.703 93.7625C199.689 93.7158 199.668 93.6725 199.64 93.6346C199.614 93.5846 199.575 93.5452 199.528 93.5222C199.481 93.4992 199.428 93.4937 199.378 93.5066Z" fill="black"/>
<path d="M200.34 92.4511L200.204 92.4953L200.083 92.5347L199.822 92.6184C199.747 92.6544 199.687 92.7201 199.653 92.8027C199.619 92.8854 199.613 92.9793 199.637 93.0663C199.653 93.1624 199.698 93.2495 199.765 93.3123C199.792 93.3389 199.825 93.3573 199.861 93.3659C199.897 93.3745 199.934 93.373 199.969 93.3615L200.223 93.2803L200.261 93.268L200.522 93.1844C200.578 93.1459 200.623 93.0891 200.651 93.0215C200.678 92.9539 200.687 92.8786 200.675 92.8054C200.677 92.7891 200.677 92.7725 200.675 92.7562V92.6971C200.661 92.65 200.639 92.6059 200.612 92.5667C200.583 92.5174 200.542 92.4797 200.493 92.4589C200.444 92.4381 200.39 92.4353 200.34 92.4511Z" fill="black"/>
<path d="M199.154 95.4406L199.018 95.4849L198.895 95.5243L198.634 95.6079C198.56 95.644 198.5 95.7098 198.466 95.7925C198.433 95.8753 198.428 95.9691 198.452 96.0558C198.466 96.1522 198.51 96.2397 198.577 96.3019C198.606 96.3274 198.639 96.3451 198.674 96.3536C198.71 96.3622 198.746 96.3613 198.781 96.3511L199.036 96.2699H199.073L199.334 96.1862C199.391 96.1476 199.436 96.0909 199.464 96.0234C199.492 95.9559 199.501 95.8806 199.49 95.8073C199.491 95.7909 199.491 95.7745 199.49 95.7581L199.479 95.699C199.465 95.6518 199.443 95.6077 199.416 95.5686C199.39 95.5192 199.35 95.4803 199.303 95.4573C199.257 95.4343 199.204 95.4285 199.154 95.4406Z" fill="black"/>
<path d="M198.957 95.5046L198.819 95.5489L198.698 95.5883L198.437 95.6719C198.363 95.7079 198.303 95.7737 198.269 95.8565C198.235 95.9392 198.23 96.0331 198.255 96.1198C198.269 96.2161 198.313 96.3036 198.38 96.3659C198.408 96.3913 198.441 96.409 198.477 96.4176C198.512 96.4261 198.549 96.4253 198.584 96.4151L198.839 96.3339H198.876L199.137 96.2502C199.194 96.2117 199.239 96.1549 199.266 96.0873C199.294 96.0197 199.302 95.9444 199.291 95.8712C199.293 95.8549 199.293 95.8383 199.291 95.822V95.763C199.276 95.7158 199.255 95.6717 199.227 95.6326C199.201 95.5813 199.16 95.541 199.111 95.518C199.063 95.4949 199.008 95.4902 198.957 95.5046Z" fill="black"/>
<path d="M198.711 95.6695L198.674 95.4751L198.639 95.3029L198.566 94.9313C198.562 94.8879 198.55 94.8459 198.531 94.8079C198.512 94.7698 198.486 94.7366 198.455 94.7101C198.424 94.6837 198.388 94.6645 198.351 94.6539C198.313 94.6433 198.274 94.6414 198.235 94.6483C198.199 94.6611 198.166 94.6825 198.139 94.711C198.111 94.7394 198.089 94.7743 198.075 94.8132C198.04 94.9022 198.032 95.0014 198.051 95.0962L198.123 95.4579L198.134 95.5096L198.207 95.8836C198.221 95.9541 198.257 96.0169 198.307 96.0617C198.358 96.1064 198.421 96.1304 198.485 96.1297H198.52L198.562 96.1149C198.598 96.0965 198.628 96.0686 198.652 96.0337C198.685 95.9818 198.708 95.9221 198.718 95.8591C198.729 95.7961 198.726 95.7314 198.711 95.6695Z" fill="black"/>
<path d="M198.768 95.9501L198.729 95.7557L198.696 95.5834L198.621 95.2118C198.617 95.1685 198.605 95.1266 198.586 95.0886C198.568 95.0505 198.542 95.0173 198.511 94.9908C198.48 94.9643 198.445 94.9451 198.407 94.9345C198.37 94.9238 198.33 94.9219 198.292 94.9288C198.256 94.9415 198.223 94.9628 198.195 94.9912C198.167 95.0197 198.144 95.0547 198.13 95.0937C198.095 95.1827 198.087 95.2822 198.108 95.3767L198.178 95.7384L198.189 95.7901L198.264 96.1641C198.278 96.2346 198.314 96.2974 198.364 96.3422C198.415 96.3869 198.478 96.411 198.542 96.4102H198.575L198.619 96.3955C198.653 96.3763 198.684 96.3485 198.707 96.3142C198.741 96.2627 198.764 96.2032 198.775 96.1401C198.786 96.077 198.783 96.012 198.768 95.9501Z" fill="black"/>
<path d="M201.599 92.8251L201.342 92.9063C201.267 92.9419 201.207 93.0074 201.173 93.0903C201.139 93.1731 201.133 93.2672 201.158 93.3541L201.303 94.0924C201.306 94.1358 201.318 94.178 201.337 94.2162C201.356 94.2544 201.382 94.2878 201.412 94.3143C201.443 94.3409 201.479 94.36 201.516 94.3705C201.554 94.381 201.594 94.3827 201.632 94.3754C201.668 94.3626 201.701 94.3412 201.728 94.3127C201.756 94.2842 201.778 94.2494 201.792 94.2105C201.829 94.123 201.838 94.0238 201.816 93.93L201.599 92.8251Z" fill="black"/>
<path d="M227.693 400.367H45.5637V405.707H227.693V400.367Z" fill="black"/>
<path d="M136.029 219.256C132.936 219.253 129.864 218.684 126.935 217.57C122.082 215.73 119.196 213.062 119.075 212.949C118.932 212.807 118.844 212.607 118.829 212.393C118.815 212.179 118.875 211.967 118.998 211.801C119.121 211.636 119.296 211.531 119.486 211.509C119.677 211.486 119.868 211.547 120.019 211.68C120.047 211.704 122.856 214.288 127.467 216.027C131.697 217.622 138.37 218.813 146.119 215.422C146.301 215.343 146.504 215.347 146.684 215.436C146.863 215.524 147.003 215.689 147.074 215.893C147.145 216.098 147.141 216.326 147.062 216.527C146.983 216.728 146.837 216.885 146.654 216.965C143.271 218.465 139.667 219.242 136.029 219.256Z" fill="#9D9BEA"/>
</svg>
